<svg width="294" height="180" viewBox="0 0 294 180" fill="none" xmlns="http://www.w3.org/2000/svg">
<rect width="294" height="180" rx="20" fill="#0265DC"/>
<path fill-rule="evenodd" clip-rule="evenodd" d="M55.9907 55.584H47.5667C47.2547 55.584 47.0147 55.344 47.0147 55.032C47.0147 54.744 47.2547 54.48 47.5667 54.48H55.9907V50.4H54.6947H54.6707H54.6467H54.6227H54.5747L54.5267 50.376H54.4787H54.4307H54.4067L54.3587 50.352H54.3107L54.2627 50.328H54.2387H54.1907L54.1427 50.304L54.1187 50.28H54.0707C54.0467 50.256 54.0227 50.256 53.9987 50.232C53.9507 50.232 53.9027 50.208 53.8787 50.184C53.3267 49.896 52.9667 49.32 52.9667 48.648V39.984C52.9667 39.432 53.2067 38.952 53.5907 38.64L53.6387 38.616L53.6627 38.592L53.6867 38.568H53.7107L53.7347 38.544L53.7587 38.52H53.7827V38.496H53.8067L53.8307 38.472H53.8547L53.8787 38.448H53.9027L53.9267 38.424C54.1667 38.304 54.4307 38.232 54.6947 38.232H55.9907V37.416C55.9907 36.768 55.4867 36.264 54.8387 36.264H41.1587C40.5107 36.264 40.0067 36.768 40.0067 37.416V40.416H48.4307C48.7427 40.416 48.9827 40.656 48.9827 40.968C48.9827 41.256 48.7427 41.52 48.4307 41.52H40.0067V45.6H41.3027H41.3267H41.3507H41.3747H41.3987H41.4227L41.4707 45.624H41.5187H41.5427H41.5667H41.5907H41.6147L41.6387 45.648H41.6627H41.6867L41.7347 45.672H41.7587H41.8067V45.696H41.8547L41.8787 45.72H41.9027H41.9267L41.9747 45.744L41.9987 45.768H42.0467V45.792H42.0707H42.0947L42.1187 45.816L42.1667 45.84L42.1907 45.864L42.2387 45.888H42.2627L42.2867 45.912L42.3107 45.936L42.3347 45.96L42.3587 45.984L42.3827 46.008L42.4307 46.032H42.4547V46.056H42.4787V46.08H42.5027V46.104C42.5267 46.128 42.5507 46.152 42.5987 46.176V46.2L42.6467 46.248L42.6707 46.272L42.6947 46.296V46.32L42.7187 46.368L42.7427 46.392L42.7667 46.416C42.7667 46.44 42.7907 46.464 42.7907 46.488L42.8147 46.512L42.8387 46.536V46.56L42.8627 46.584V46.608L42.8867 46.632V46.68L42.9107 46.704C42.9107 46.728 42.9347 46.752 42.9347 46.752V46.776V46.8H42.9587V46.824V46.848V46.872V46.896C42.9827 46.896 42.9827 46.92 42.9827 46.944L43.0067 46.992V47.04V47.088V47.112L43.0307 47.16V47.208V47.256V47.304V47.352V54.984V56.016C43.0307 56.112 43.0307 56.208 43.0067 56.28C43.0067 56.328 43.0067 56.376 42.9827 56.4C42.9827 56.448 42.9587 56.496 42.9587 56.544L42.9347 56.568V56.592V56.616L42.9107 56.664C42.9107 56.688 42.8867 56.712 42.8867 56.736L42.8627 56.76V56.784L42.8387 56.808L42.8147 56.832V56.856L42.7907 56.88V56.904V56.928H42.7667V56.952L42.7427 56.976V57H42.7187V57.024H42.6947V57.048C42.6707 57.072 42.6707 57.072 42.6707 57.096L42.6227 57.12L42.5987 57.144V57.168C42.2867 57.528 41.8067 57.768 41.3027 57.768H40.0067V58.584C40.0067 59.232 40.5107 59.736 41.1587 59.736H54.8387C55.4867 59.736 55.9907 59.232 55.9907 58.584V55.584ZM42.7667 46.416C42.7667 46.44 42.7907 46.464 42.7907 46.488L42.7667 46.416ZM57.1187 68.472H38.8787C37.4627 68.472 36.3107 67.32 36.3107 65.928V62.88V57.768H32.6147H32.5667L32.5187 57.744H32.4947H32.4467H32.3987H32.3507L32.3027 57.72H32.2787H32.2547H32.2307L32.1827 57.696C31.4387 57.504 30.8867 56.832 30.8867 56.016V47.352C30.8867 46.392 31.6547 45.6 32.6147 45.6H36.3107V33.12V30.072C36.3107 28.68 37.4627 27.528 38.8787 27.528H57.1187C58.5347 27.528 59.6867 28.68 59.6867 30.072V33.096V33.12V33.144V38.232H63.3827C64.3427 38.232 65.1107 39.024 65.1107 39.984V48.648C65.1107 49.608 64.3427 50.4 63.3827 50.4H59.6867V62.88V65.928C59.6867 67.32 58.5347 68.472 57.1187 68.472ZM36.8627 56.664H38.3267L37.3907 55.728L37.3667 55.704L34.3187 52.656L31.9667 55.032V56.016V56.04V56.064V56.088V56.112L31.9907 56.136V56.16V56.184V56.208L32.0147 56.232V56.256V56.28H32.0387V56.304V56.328L32.0627 56.352V56.376H32.0867V56.4L32.1107 56.424L32.1347 56.448L32.1587 56.472L32.1827 56.496V56.52H32.2067L32.2307 56.544L32.2547 56.568H32.2787L32.3027 56.592H32.3267L32.3507 56.616H32.3747H32.3987V56.64H32.4227H32.4467H32.4707L32.4947 56.664H32.5187H32.5427H32.5667H32.5907H32.6147H36.8627ZM54.0707 48.744V48.768V48.792V48.816V48.84C54.0947 48.84 54.0947 48.864 54.0947 48.888V48.912H54.1187V48.936V48.96H54.1427V48.984L54.1667 49.008V49.032H54.1907V49.056L54.2147 49.08C54.2387 49.104 54.2387 49.128 54.2627 49.128V49.152C54.3827 49.248 54.5507 49.296 54.6947 49.296H56.5427H56.5667H59.1347H59.1587H63.3827C63.7427 49.296 64.0307 49.008 64.0307 48.648V39.984C64.0307 39.624 63.7427 39.336 63.3827 39.336H54.6947C54.4067 39.336 54.1427 39.552 54.0707 39.816V39.84V39.864V39.888V39.912V39.936H54.0467V39.96V39.984V48.648V48.672V48.696H54.0707V48.72V48.744ZM37.4147 57.768V62.328H58.5827V50.4H57.0947V55.008V55.032V55.056V58.584C57.0947 59.832 56.0867 60.84 54.8387 60.84H41.1587C39.9107 60.84 38.9027 59.832 38.9027 58.584V57.768H37.4147ZM37.4147 63.432V65.928C37.4147 66.72 38.0627 67.392 38.8787 67.392H57.1187C57.9347 67.392 58.5827 66.72 58.5827 65.928V63.432H37.4147ZM57.0947 38.232H58.5827V33.672H37.4147V45.6H38.9027V37.416C38.9027 36.168 39.9107 35.16 41.1587 35.16H54.8387C56.0867 35.16 57.0947 36.168 57.0947 37.416V38.232ZM58.5827 32.568V30.072C58.5827 29.28 57.9347 28.608 57.1187 28.608H52.5107V29.088C52.5107 29.976 51.7907 30.672 50.9267 30.672H45.0707C44.2067 30.672 43.4867 29.976 43.4867 29.088V28.608H38.8787C38.0627 28.608 37.4147 29.28 37.4147 30.072V32.568H58.5827ZM44.5907 28.608V29.088C44.5907 29.376 44.8067 29.592 45.0707 29.592H50.9267C51.1907 29.592 51.4067 29.376 51.4067 29.088V28.608H44.5907ZM50.0387 65.952H45.7667C45.4787 65.952 45.2387 65.712 45.2387 65.4C45.2387 65.112 45.4787 64.872 45.7667 64.872H50.0387C50.3507 64.872 50.5907 65.112 50.5907 65.4C50.5907 65.712 50.3507 65.952 50.0387 65.952ZM39.8387 56.664H41.3027C41.6387 56.664 41.9507 56.376 41.9507 56.016V55.224L40.2947 53.568L38.5427 55.344L39.5507 56.352L39.7427 56.544H39.7667V56.568C39.7907 56.592 39.8147 56.616 39.8387 56.664ZM41.9507 53.664V47.352C41.9507 47.232 41.9267 47.136 41.8787 47.064C41.8547 47.04 41.8547 47.04 41.8547 47.016L41.8307 46.992V46.968H41.8067V46.944L41.7827 46.92V46.896H41.7587L41.7347 46.872L41.7107 46.848L41.6867 46.824H41.6627V46.8H41.6387L41.6147 46.776H41.5907V46.752H41.5667C41.4947 46.728 41.3987 46.704 41.3027 46.704H32.6147C32.2547 46.704 31.9667 46.992 31.9667 47.352V53.472L33.9347 51.504C34.1507 51.288 34.5107 51.288 34.7027 51.504L37.7747 54.552L39.9107 52.416C40.1267 52.2 40.4867 52.2 40.6787 52.416L41.9507 53.664ZM54.0707 50.28C54.0467 50.256 54.0227 50.256 53.9987 50.232L54.0707 50.28ZM37.9187 52.128C36.7427 52.128 35.7827 51.168 35.7827 49.992C35.7827 48.816 36.7427 47.856 37.9187 47.856C39.0947 47.856 40.0547 48.816 40.0547 49.992C40.0547 51.168 39.0947 52.128 37.9187 52.128ZM37.9187 48.936C37.3427 48.936 36.8627 49.416 36.8627 49.992C36.8627 50.568 37.3427 51.048 37.9187 51.048C38.4947 51.048 38.9747 50.568 38.9747 49.992C38.9747 49.416 38.4947 48.936 37.9187 48.936ZM62.1587 42.336H58.6787C58.3907 42.336 58.1267 42.096 58.1267 41.784C58.1267 41.496 58.3907 41.232 58.6787 41.232H62.1587C62.4467 41.232 62.6867 41.496 62.6867 41.784C62.6867 42.096 62.4467 42.336 62.1587 42.336ZM56.9267 42.336H55.9427C55.6307 42.336 55.3907 42.096 55.3907 41.784C55.3907 41.496 55.6307 41.232 55.9427 41.232H56.9267C57.2387 41.232 57.4787 41.496 57.4787 41.784C57.4787 42.096 57.2387 42.336 56.9267 42.336ZM62.1587 44.856H61.2707C60.9587 44.856 60.7187 44.616 60.7187 44.328C60.7187 44.016 60.9587 43.776 61.2707 43.776H62.1587C62.4467 43.776 62.6867 44.016 62.6867 44.328C62.6867 44.616 62.4467 44.856 62.1587 44.856ZM59.0387 44.856H55.9427C55.6307 44.856 55.3907 44.616 55.3907 44.328C55.3907 44.016 55.6307 43.776 55.9427 43.776H59.0387C59.3267 43.776 59.5907 44.016 59.5907 44.328C59.5907 44.616 59.3267 44.856 59.0387 44.856ZM62.1587 47.4H59.4707C59.1827 47.4 58.9187 47.16 58.9187 46.848C58.9187 46.56 59.1827 46.296 59.4707 46.296H62.1587C62.4467 46.296 62.6867 46.56 62.6867 46.848C62.6867 47.16 62.4467 47.4 62.1587 47.4ZM57.1907 47.4H55.9427C55.6307 47.4 55.3907 47.16 55.3907 46.848C55.3907 46.56 55.6307 46.296 55.9427 46.296H57.1907C57.4787 46.296 57.7427 46.56 57.7427 46.848C57.7427 47.16 57.4787 47.4 57.1907 47.4Z" fill="white"/>
<path d="M24.308 117L31.504 96.14H36.432L43.628 117H39.484L38 112.52H29.936L28.424 117H24.308ZM31.028 109.16H36.908L33.436 98.772H34.5L31.028 109.16ZM45.6416 122.6V101.768H49.0856V104.792L48.7496 104.036C49.2723 103.215 49.9816 102.58 50.8776 102.132C51.7736 101.665 52.8096 101.432 53.9856 101.432C55.4229 101.432 56.7203 101.787 57.8776 102.496C59.0349 103.205 59.9496 104.157 60.6216 105.352C61.3123 106.547 61.6576 107.891 61.6576 109.384C61.6576 110.859 61.3216 112.203 60.6496 113.416C59.9776 114.629 59.0629 115.591 57.9056 116.3C56.7483 116.991 55.4323 117.336 53.9576 117.336C52.8563 117.336 51.8389 117.121 50.9056 116.692C49.9909 116.244 49.2629 115.609 48.7216 114.788L49.3096 114.06V122.6H45.6416ZM53.5376 113.976C54.3776 113.976 55.1243 113.78 55.7776 113.388C56.4309 112.996 56.9349 112.455 57.2896 111.764C57.6629 111.073 57.8496 110.28 57.8496 109.384C57.8496 108.488 57.6629 107.704 57.2896 107.032C56.9349 106.341 56.4309 105.8 55.7776 105.408C55.1243 104.997 54.3776 104.792 53.5376 104.792C52.7349 104.792 52.0069 104.988 51.3536 105.38C50.7189 105.772 50.2149 106.323 49.8416 107.032C49.4869 107.723 49.3096 108.507 49.3096 109.384C49.3096 110.28 49.4869 111.073 49.8416 111.764C50.2149 112.455 50.7189 112.996 51.3536 113.388C52.0069 113.78 52.7349 113.976 53.5376 113.976ZM64.4541 122.6V101.768H67.8981V104.792L67.5621 104.036C68.0848 103.215 68.7941 102.58 69.6901 102.132C70.5861 101.665 71.6221 101.432 72.7981 101.432C74.2354 101.432 75.5328 101.787 76.6901 102.496C77.8474 103.205 78.7621 104.157 79.4341 105.352C80.1248 106.547 80.4701 107.891 80.4701 109.384C80.4701 110.859 80.1341 112.203 79.4621 113.416C78.7901 114.629 77.8754 115.591 76.7181 116.3C75.5608 116.991 74.2448 117.336 72.7701 117.336C71.6688 117.336 70.6514 117.121 69.7181 116.692C68.8034 116.244 68.0754 115.609 67.5341 114.788L68.1221 114.06V122.6H64.4541ZM72.3501 113.976C73.1901 113.976 73.9368 113.78 74.5901 113.388C75.2434 112.996 75.7474 112.455 76.1021 111.764C76.4754 111.073 76.6621 110.28 76.6621 109.384C76.6621 108.488 76.4754 107.704 76.1021 107.032C75.7474 106.341 75.2434 105.8 74.5901 105.408C73.9368 104.997 73.1901 104.792 72.3501 104.792C71.5474 104.792 70.8194 104.988 70.1661 105.38C69.5314 105.772 69.0274 106.323 68.6541 107.032C68.2994 107.723 68.1221 108.507 68.1221 109.384C68.1221 110.28 68.2994 111.073 68.6541 111.764C69.0274 112.455 69.5314 112.996 70.1661 113.388C70.8194 113.78 71.5474 113.976 72.3501 113.976ZM88.5512 117V96.14H92.3592V117H88.5512ZM103.399 117.336C101.887 117.336 100.525 116.991 99.3115 116.3C98.1168 115.591 97.1741 114.639 96.4835 113.444C95.7928 112.231 95.4475 110.868 95.4475 109.356C95.4475 107.844 95.7928 106.491 96.4835 105.296C97.1741 104.101 98.1168 103.159 99.3115 102.468C100.525 101.777 101.887 101.432 103.399 101.432C104.482 101.432 105.49 101.628 106.423 102.02C107.357 102.393 108.159 102.916 108.831 103.588C109.522 104.241 110.017 105.025 110.315 105.94L107.095 107.34C106.815 106.575 106.339 105.959 105.667 105.492C105.014 105.025 104.258 104.792 103.399 104.792C102.597 104.792 101.878 104.988 101.243 105.38C100.627 105.772 100.142 106.313 99.7875 107.004C99.4328 107.695 99.2555 108.488 99.2555 109.384C99.2555 110.28 99.4328 111.073 99.7875 111.764C100.142 112.455 100.627 112.996 101.243 113.388C101.878 113.78 102.597 113.976 103.399 113.976C104.277 113.976 105.042 113.743 105.695 113.276C106.349 112.809 106.815 112.184 107.095 111.4L110.315 112.856C110.017 113.715 109.531 114.489 108.859 115.18C108.187 115.852 107.385 116.384 106.451 116.776C105.518 117.149 104.501 117.336 103.399 117.336ZM120.547 117.336C119.053 117.336 117.691 116.991 116.459 116.3C115.245 115.609 114.275 114.667 113.547 113.472C112.837 112.277 112.483 110.915 112.483 109.384C112.483 107.853 112.837 106.491 113.547 105.296C114.275 104.101 115.245 103.159 116.459 102.468C117.672 101.777 119.035 101.432 120.547 101.432C122.04 101.432 123.393 101.777 124.607 102.468C125.82 103.159 126.781 104.101 127.491 105.296C128.219 106.472 128.583 107.835 128.583 109.384C128.583 110.915 128.219 112.277 127.491 113.472C126.763 114.667 125.792 115.609 124.579 116.3C123.365 116.991 122.021 117.336 120.547 117.336ZM120.547 113.976C121.368 113.976 122.087 113.78 122.703 113.388C123.337 112.996 123.832 112.455 124.187 111.764C124.56 111.055 124.747 110.261 124.747 109.384C124.747 108.488 124.56 107.704 124.187 107.032C123.832 106.341 123.337 105.8 122.703 105.408C122.087 104.997 121.368 104.792 120.547 104.792C119.707 104.792 118.969 104.997 118.335 105.408C117.7 105.8 117.196 106.341 116.823 107.032C116.468 107.704 116.291 108.488 116.291 109.384C116.291 110.261 116.468 111.055 116.823 111.764C117.196 112.455 117.7 112.996 118.335 113.388C118.969 113.78 119.707 113.976 120.547 113.976ZM131.364 117V101.768H134.808V104.764L134.528 104.232C134.883 103.317 135.462 102.627 136.264 102.16C137.086 101.675 138.038 101.432 139.12 101.432C140.24 101.432 141.23 101.675 142.088 102.16C142.966 102.645 143.647 103.327 144.132 104.204C144.618 105.063 144.86 106.061 144.86 107.2V117H141.192V108.068C141.192 107.396 141.062 106.817 140.8 106.332C140.539 105.847 140.175 105.473 139.708 105.212C139.26 104.932 138.728 104.792 138.112 104.792C137.515 104.792 136.983 104.932 136.516 105.212C136.05 105.473 135.686 105.847 135.424 106.332C135.163 106.817 135.032 107.396 135.032 108.068V117H131.364ZM153.758 117.336C152.134 117.336 150.715 116.953 149.502 116.188C148.307 115.404 147.486 114.349 147.038 113.024L149.782 111.708C150.174 112.567 150.715 113.239 151.406 113.724C152.115 114.209 152.899 114.452 153.758 114.452C154.43 114.452 154.962 114.303 155.354 114.004C155.746 113.705 155.942 113.313 155.942 112.828C155.942 112.529 155.858 112.287 155.69 112.1C155.541 111.895 155.326 111.727 155.046 111.596C154.785 111.447 154.495 111.325 154.178 111.232L151.686 110.532C150.398 110.159 149.418 109.589 148.746 108.824C148.093 108.059 147.766 107.153 147.766 106.108C147.766 105.175 147.999 104.363 148.466 103.672C148.951 102.963 149.614 102.412 150.454 102.02C151.313 101.628 152.293 101.432 153.394 101.432C154.831 101.432 156.101 101.777 157.202 102.468C158.303 103.159 159.087 104.129 159.554 105.38L156.754 106.696C156.493 106.005 156.054 105.455 155.438 105.044C154.822 104.633 154.131 104.428 153.366 104.428C152.75 104.428 152.265 104.568 151.91 104.848C151.555 105.128 151.378 105.492 151.378 105.94C151.378 106.22 151.453 106.463 151.602 106.668C151.751 106.873 151.957 107.041 152.218 107.172C152.498 107.303 152.815 107.424 153.17 107.536L155.606 108.264C156.857 108.637 157.818 109.197 158.49 109.944C159.181 110.691 159.526 111.605 159.526 112.688C159.526 113.603 159.283 114.415 158.798 115.124C158.313 115.815 157.641 116.356 156.782 116.748C155.923 117.14 154.915 117.336 153.758 117.336Z" fill="#F8F7FF"/>
<path d="M27.216 144.448C27.1307 144.448 27.088 144.491 27.088 144.576V149.76C27.088 149.92 26.9973 150 26.816 150H25.776C25.6907 150 25.632 149.984 25.6 149.952C25.568 149.909 25.552 149.851 25.552 149.776V138.352C25.552 138.203 25.616 138.128 25.744 138.128H26.896C27.024 138.128 27.088 138.197 27.088 138.336V143.04C27.088 143.168 27.1467 143.232 27.264 143.232H32.512C32.6187 143.232 32.672 143.168 32.672 143.04V138.32C32.672 138.192 32.7307 138.128 32.848 138.128H34.016C34.144 138.128 34.208 138.203 34.208 138.352V149.776C34.208 149.851 34.192 149.909 34.16 149.952C34.128 149.984 34.0693 150 33.984 150H32.944C32.7627 150 32.672 149.92 32.672 149.76V144.592C32.672 144.496 32.624 144.448 32.528 144.448H27.216ZM38.3416 149.728C38.3416 149.835 38.3203 149.909 38.2776 149.952C38.2456 149.984 38.171 150 38.0536 150H37.2376C37.1416 150 37.0776 149.984 37.0456 149.952C37.0136 149.92 36.9976 149.861 36.9976 149.776V141.744C36.9976 141.595 37.0616 141.52 37.1896 141.52H38.1656C38.283 141.52 38.3416 141.589 38.3416 141.728V149.728ZM38.4056 139.696C38.4056 139.899 38.3096 140 38.1176 140H37.1896C37.0936 140 37.0296 139.979 36.9976 139.936C36.9656 139.883 36.9496 139.813 36.9496 139.728V138.384C36.9496 138.213 37.0243 138.128 37.1736 138.128H38.1816C38.331 138.128 38.4056 138.208 38.4056 138.368V139.696ZM48.4898 141.376C48.5964 141.376 48.6711 141.397 48.7138 141.44C48.7671 141.483 48.7938 141.547 48.7938 141.632V142.192C48.7938 142.288 48.7671 142.363 48.7138 142.416C48.6711 142.469 48.5911 142.491 48.4738 142.48C48.3031 142.48 48.1538 142.491 48.0258 142.512C47.8978 142.533 47.7698 142.571 47.6418 142.624C47.3858 142.72 47.2791 142.843 47.3218 142.992C47.3751 143.109 47.4338 143.253 47.4978 143.424C47.5618 143.584 47.5938 143.803 47.5938 144.08C47.5938 144.549 47.4711 144.981 47.2258 145.376C46.9804 145.76 46.5964 146.069 46.0738 146.304C45.5618 146.539 44.9111 146.656 44.1218 146.656C43.5778 146.656 43.1511 146.688 42.8418 146.752C42.5324 146.816 42.3138 146.901 42.1858 147.008C42.0578 147.115 41.9938 147.227 41.9938 147.344C41.9938 147.515 42.1058 147.637 42.3298 147.712C42.5644 147.787 42.9378 147.84 43.4498 147.872L45.5138 147.984C46.4524 148.037 47.1404 148.261 47.5778 148.656C48.0151 149.051 48.2338 149.568 48.2338 150.208C48.2338 151.008 47.8764 151.637 47.1618 152.096C46.4578 152.565 45.4498 152.8 44.1378 152.8C42.7831 152.8 41.7484 152.603 41.0338 152.208C40.3298 151.824 39.9778 151.269 39.9778 150.544C39.9778 150.171 40.1058 149.835 40.3618 149.536C40.6284 149.237 41.0018 148.971 41.4818 148.736C41.5991 148.683 41.5991 148.624 41.4818 148.56C41.2471 148.453 41.0658 148.325 40.9378 148.176C40.8098 148.016 40.7458 147.829 40.7458 147.616C40.7458 147.467 40.7938 147.317 40.8898 147.168C40.9858 147.019 41.1244 146.88 41.3058 146.752C41.4978 146.624 41.7271 146.512 41.9938 146.416C42.0578 146.395 42.0898 146.368 42.0898 146.336C42.0898 146.304 42.0631 146.267 42.0098 146.224C41.5404 145.989 41.1938 145.696 40.9698 145.344C40.7458 144.992 40.6338 144.571 40.6338 144.08C40.6338 143.248 40.9484 142.592 41.5778 142.112C42.2071 141.632 43.0978 141.392 44.2498 141.392C44.8044 141.392 45.2738 141.456 45.6578 141.584C46.0524 141.712 46.3831 141.888 46.6498 142.112C46.7138 142.165 46.7724 142.192 46.8258 142.192C46.8791 142.192 46.9324 142.165 46.9858 142.112C47.1138 141.995 47.2578 141.883 47.4178 141.776C47.5778 141.659 47.7484 141.563 47.9298 141.488C48.1218 141.413 48.3084 141.376 48.4898 141.376ZM44.1218 145.808C44.8684 145.808 45.4231 145.659 45.7858 145.36C46.1484 145.051 46.3298 144.619 46.3298 144.064C46.3298 143.499 46.1484 143.056 45.7858 142.736C45.4231 142.405 44.8684 142.24 44.1218 142.24C43.4071 142.24 42.8524 142.405 42.4578 142.736C42.0738 143.056 41.8818 143.499 41.8818 144.064C41.8818 144.619 42.0738 145.051 42.4578 145.36C42.8524 145.659 43.4071 145.808 44.1218 145.808ZM42.7138 148.96C42.5218 148.949 42.3084 149.008 42.0738 149.136C41.8391 149.253 41.6311 149.419 41.4498 149.632C41.2684 149.845 41.1778 150.096 41.1778 150.384C41.1778 150.715 41.2898 150.997 41.5138 151.232C41.7484 151.477 42.0951 151.659 42.5538 151.776C43.0231 151.904 43.5991 151.968 44.2818 151.968C45.1671 151.968 45.8391 151.835 46.2978 151.568C46.7564 151.312 46.9858 150.912 46.9858 150.368C46.9858 150.016 46.8631 149.728 46.6178 149.504C46.3831 149.28 45.9724 149.152 45.3858 149.12L42.7138 148.96ZM50.6748 150C50.5361 150 50.4668 149.931 50.4668 149.792V138.336C50.4668 138.197 50.5254 138.128 50.6428 138.128H51.5868C51.7041 138.128 51.7628 138.192 51.7628 138.32V142.592C51.7628 142.645 51.7734 142.677 51.7948 142.688C51.8161 142.699 51.8534 142.683 51.9068 142.64C52.2801 142.352 52.6214 142.112 52.9308 141.92C53.2508 141.728 53.5601 141.589 53.8588 141.504C54.1681 141.408 54.5041 141.36 54.8668 141.36C55.6988 141.36 56.3334 141.584 56.7708 142.032C57.2081 142.469 57.4268 143.056 57.4268 143.792V149.744C57.4268 149.915 57.3468 150 57.1868 150H56.2908C56.2161 150 56.1628 149.984 56.1308 149.952C56.0988 149.909 56.0828 149.856 56.0828 149.792V144.08C56.0828 143.557 55.9494 143.152 55.6828 142.864C55.4161 142.565 54.9948 142.416 54.4188 142.416C54.1094 142.416 53.8161 142.469 53.5388 142.576C53.2721 142.672 53.0001 142.816 52.7228 143.008C52.4454 143.189 52.1414 143.424 51.8108 143.712V149.76C51.8108 149.92 51.7254 150 51.5548 150H50.6748ZM63.6665 146.08C63.6665 146.229 63.5758 146.304 63.3945 146.304H59.7625C59.6878 146.304 59.6345 146.293 59.6025 146.272C59.5705 146.24 59.5545 146.187 59.5545 146.112V145.408C59.5545 145.291 59.6025 145.232 59.6985 145.232L63.5065 145.216C63.6132 145.216 63.6665 145.269 63.6665 145.376V146.08ZM72.7683 141.52C72.8536 141.52 72.9123 141.541 72.9443 141.584C72.9869 141.616 73.0083 141.685 73.0083 141.792V152.432C73.0083 152.571 72.9443 152.64 72.8163 152.64H71.8403C71.7229 152.64 71.6643 152.571 71.6643 152.432V149.488C71.6643 149.36 71.6483 149.285 71.6163 149.264C71.5843 149.243 71.5203 149.275 71.4243 149.36C71.1469 149.573 70.8056 149.76 70.4003 149.92C69.9949 150.08 69.5469 150.16 69.0563 150.16C68.3096 150.16 67.6643 149.979 67.1203 149.616C66.5763 149.253 66.1549 148.741 65.8563 148.08C65.5683 147.419 65.4243 146.635 65.4243 145.728C65.4243 144.853 65.5683 144.091 65.8563 143.44C66.1443 142.779 66.5603 142.267 67.1043 141.904C67.6589 141.541 68.3203 141.36 69.0883 141.36C69.6323 141.36 70.0749 141.429 70.4163 141.568C70.7576 141.707 71.0296 141.867 71.2323 142.048C71.4456 142.219 71.6109 142.368 71.7283 142.496C71.8243 142.603 71.8829 142.587 71.9043 142.448L72.0163 141.776C72.0376 141.68 72.0643 141.616 72.0963 141.584C72.1389 141.541 72.2083 141.52 72.3043 141.52H72.7683ZM71.6643 144.384C71.6643 144.021 71.5629 143.685 71.3603 143.376C71.1683 143.056 70.9016 142.8 70.5603 142.608C70.2296 142.405 69.8456 142.304 69.4083 142.304C68.9283 142.304 68.4909 142.427 68.0963 142.672C67.7016 142.917 67.3869 143.296 67.1523 143.808C66.9176 144.309 66.8003 144.944 66.8003 145.712C66.8003 146.459 66.9123 147.093 67.1363 147.616C67.3603 148.128 67.6696 148.517 68.0643 148.784C68.4589 149.051 68.9123 149.184 69.4243 149.184C69.8509 149.184 70.2563 149.093 70.6403 148.912C71.0349 148.731 71.3763 148.48 71.6643 148.16V144.384ZM78.3464 149.104C78.805 149.104 79.2424 148.981 79.6584 148.736C80.085 148.48 80.5064 148.139 80.9224 147.712V141.76C80.9224 141.6 81.0077 141.52 81.1784 141.52H82.0584C82.2077 141.52 82.2824 141.595 82.2824 141.744L82.2504 149.792C82.2504 149.931 82.1917 150 82.0744 150H81.1464C81.029 150 80.9704 149.941 80.9704 149.824V148.88C80.9704 148.827 80.9597 148.795 80.9384 148.784C80.917 148.773 80.8797 148.789 80.8264 148.832C80.2397 149.333 79.717 149.68 79.2584 149.872C78.8104 150.064 78.3624 150.16 77.9144 150.16C77.4237 150.16 76.9864 150.059 76.6024 149.856C76.2184 149.653 75.9144 149.371 75.6904 149.008C75.4664 148.635 75.3544 148.203 75.3544 147.712V141.776C75.3544 141.605 75.4344 141.52 75.5944 141.52H76.4904C76.629 141.52 76.6984 141.595 76.6984 141.744V147.36C76.6984 147.883 76.8424 148.304 77.1304 148.624C77.429 148.944 77.8344 149.104 78.3464 149.104ZM89.612 148.976C89.2173 149.36 88.7853 149.653 88.316 149.856C87.8573 150.059 87.34 150.16 86.764 150.16C85.932 150.16 85.276 149.947 84.796 149.52C84.3267 149.093 84.092 148.533 84.092 147.84C84.092 147.275 84.252 146.789 84.572 146.384C84.892 145.968 85.3667 145.643 85.996 145.408C86.6253 145.163 87.3987 145.013 88.316 144.96L89.564 144.864C89.628 144.853 89.6867 144.832 89.74 144.8C89.7933 144.768 89.82 144.709 89.82 144.624V144.192C89.82 143.616 89.6387 143.163 89.276 142.832C88.924 142.491 88.444 142.32 87.836 142.32C87.3667 142.32 86.94 142.427 86.556 142.64C86.1827 142.853 85.8467 143.173 85.548 143.6C85.5053 143.653 85.468 143.691 85.436 143.712C85.4147 143.723 85.372 143.717 85.308 143.696L84.444 143.408C84.412 143.387 84.3853 143.36 84.364 143.328C84.3533 143.296 84.3693 143.237 84.412 143.152C84.732 142.597 85.18 142.16 85.756 141.84C86.3427 141.52 87.0573 141.36 87.9 141.36C88.6147 141.36 89.2067 141.472 89.676 141.696C90.156 141.909 90.5133 142.224 90.748 142.64C90.9933 143.045 91.116 143.531 91.116 144.096V149.76C91.116 149.856 91.1 149.92 91.068 149.952C91.036 149.984 90.9827 150 90.908 150H90.092C90.0173 150 89.964 149.979 89.932 149.936C89.9 149.883 89.8787 149.819 89.868 149.744L89.852 149.008C89.82 148.859 89.74 148.848 89.612 148.976ZM89.82 145.936C89.82 145.755 89.7453 145.669 89.596 145.68L88.54 145.776C88.0493 145.797 87.612 145.861 87.228 145.968C86.844 146.064 86.5187 146.192 86.252 146.352C85.9853 146.512 85.7827 146.704 85.644 146.928C85.5053 147.141 85.436 147.392 85.436 147.68C85.436 148.149 85.596 148.517 85.916 148.784C86.2467 149.04 86.6893 149.168 87.244 149.168C87.5853 149.168 87.9107 149.109 88.22 148.992C88.54 148.864 88.8173 148.704 89.052 148.512C89.2973 148.309 89.484 148.101 89.612 147.888C89.7507 147.675 89.82 147.467 89.82 147.264V145.936ZM94.8576 149.728C94.8576 149.835 94.8363 149.909 94.7936 149.952C94.751 149.984 94.6763 150 94.5696 150H93.7376C93.5776 150 93.4976 149.925 93.4976 149.776L93.5136 138.352C93.5136 138.203 93.5776 138.128 93.7056 138.128H94.6656C94.7936 138.128 94.8576 138.197 94.8576 138.336V149.728ZM98.6698 149.728C98.6698 149.835 98.6484 149.909 98.6058 149.952C98.5738 149.984 98.4991 150 98.3818 150H97.5658C97.4698 150 97.4058 149.984 97.3738 149.952C97.3418 149.92 97.3258 149.861 97.3258 149.776V141.744C97.3258 141.595 97.3898 141.52 97.5178 141.52H98.4938C98.6111 141.52 98.6698 141.589 98.6698 141.728V149.728ZM98.7338 139.696C98.7338 139.899 98.6378 140 98.4457 140H97.5178C97.4218 140 97.3578 139.979 97.3258 139.936C97.2938 139.883 97.2778 139.813 97.2778 139.728V138.384C97.2778 138.213 97.3524 138.128 97.5018 138.128H98.5098C98.6591 138.128 98.7338 138.208 98.7338 138.368V139.696ZM103.394 142.528C103.309 142.528 103.266 142.571 103.266 142.656V147.728C103.266 148.229 103.351 148.565 103.522 148.736C103.693 148.907 103.949 148.992 104.29 148.992H105.394C105.447 148.992 105.49 149.008 105.522 149.04C105.554 149.061 105.57 149.104 105.57 149.168L105.554 149.712C105.554 149.819 105.49 149.888 105.362 149.92C105.255 149.941 105.101 149.957 104.898 149.968C104.706 149.979 104.514 149.989 104.322 150C104.141 150 103.986 150 103.858 150C103.186 150 102.695 149.845 102.386 149.536C102.077 149.216 101.922 148.715 101.922 148.032V142.688C101.922 142.581 101.869 142.528 101.762 142.528H100.482C100.365 142.528 100.306 142.469 100.306 142.352V141.68C100.306 141.573 100.359 141.52 100.466 141.52H101.826C101.901 141.52 101.938 141.477 101.938 141.392L102.114 138.848C102.125 138.709 102.183 138.64 102.29 138.64H103.09C103.218 138.64 103.282 138.715 103.282 138.864V141.392C103.282 141.477 103.325 141.52 103.41 141.52H105.426C105.543 141.52 105.602 141.568 105.602 141.664V142.352C105.602 142.469 105.543 142.528 105.426 142.528H103.394ZM107.805 152.64C107.496 152.64 107.256 152.629 107.085 152.608C106.915 152.587 106.829 152.528 106.829 152.432V151.808C106.829 151.733 106.856 151.68 106.909 151.648C106.973 151.616 107.096 151.6 107.277 151.6H108.285C108.52 151.6 108.733 151.52 108.925 151.36C109.117 151.211 109.277 151.019 109.405 150.784C109.533 150.549 109.619 150.309 109.661 150.064C109.704 149.829 109.688 149.621 109.613 149.44L106.557 141.792C106.536 141.717 106.536 141.653 106.557 141.6C106.589 141.547 106.648 141.52 106.733 141.52H107.725C107.789 141.52 107.843 141.536 107.885 141.568C107.928 141.589 107.96 141.632 107.981 141.696L110.365 147.904C110.408 148 110.456 148.048 110.509 148.048C110.563 148.048 110.611 147.984 110.653 147.856L113.005 141.696C113.037 141.632 113.069 141.589 113.101 141.568C113.133 141.536 113.176 141.52 113.229 141.52H113.981C114.056 141.52 114.109 141.547 114.141 141.6C114.173 141.643 114.173 141.696 114.141 141.76L110.621 150.752C110.472 151.136 110.307 151.451 110.125 151.696C109.944 151.941 109.736 152.128 109.501 152.256C109.277 152.395 109.027 152.491 108.749 152.544C108.472 152.608 108.157 152.64 107.805 152.64Z" fill="#EFF5FA" fill-opacity="0.82"/>
<path d="M125.48 145.488C125.203 145.488 124.947 145.419 124.712 145.28C124.488 145.141 124.307 144.96 124.168 144.736C124.029 144.501 123.96 144.245 123.96 143.968C123.96 143.691 124.029 143.44 124.168 143.216C124.307 142.981 124.488 142.795 124.712 142.656C124.947 142.517 125.203 142.448 125.48 142.448C125.757 142.448 126.008 142.517 126.232 142.656C126.467 142.795 126.653 142.981 126.792 143.216C126.931 143.44 127 143.691 127 143.968C127 144.245 126.931 144.501 126.792 144.736C126.653 144.96 126.467 145.141 126.232 145.28C126.008 145.419 125.757 145.488 125.48 145.488Z" fill="#EFF5FA" fill-opacity="0.82"/>
<path d="M137.552 138.352C137.552 138.203 137.616 138.128 137.744 138.128H144.928C145.035 138.128 145.088 138.187 145.088 138.304V139.12C145.088 139.248 145.019 139.312 144.88 139.312H139.296C139.157 139.312 139.088 139.376 139.088 139.504V143.248C139.088 143.365 139.147 143.424 139.264 143.424H143.408C143.525 143.424 143.584 143.483 143.584 143.6V144.448C143.584 144.491 143.573 144.528 143.552 144.56C143.531 144.581 143.483 144.592 143.408 144.592H139.264C139.147 144.592 139.088 144.651 139.088 144.768V148.656C139.088 148.763 139.141 148.816 139.248 148.816H145.12C145.237 148.816 145.296 148.869 145.296 148.976V149.824C145.296 149.877 145.28 149.92 145.248 149.952C145.227 149.984 145.184 150 145.12 150H137.776C137.627 150 137.552 149.925 137.552 149.776V138.352ZM148.639 149.728C148.639 149.835 148.618 149.909 148.575 149.952C148.532 149.984 148.458 150 148.351 150H147.519C147.359 150 147.279 149.925 147.279 149.776L147.295 138.352C147.295 138.203 147.359 138.128 147.487 138.128H148.447C148.575 138.128 148.639 138.197 148.639 138.336V149.728ZM152.003 146.288C152.003 146.811 152.126 147.291 152.371 147.728C152.627 148.155 152.963 148.496 153.379 148.752C153.806 149.008 154.28 149.136 154.803 149.136C155.336 149.136 155.811 149.029 156.227 148.816C156.643 148.592 157 148.256 157.299 147.808C157.342 147.765 157.374 147.744 157.395 147.744C157.427 147.733 157.47 147.739 157.523 147.76L158.195 148.096C158.291 148.149 158.302 148.224 158.227 148.32C157.939 148.747 157.619 149.099 157.267 149.376C156.926 149.643 156.542 149.84 156.115 149.968C155.688 150.096 155.208 150.16 154.675 150.16C153.886 150.16 153.187 149.979 152.579 149.616C151.971 149.253 151.491 148.747 151.139 148.096C150.787 147.445 150.611 146.693 150.611 145.84C150.611 144.912 150.787 144.117 151.139 143.456C151.502 142.784 151.987 142.267 152.595 141.904C153.214 141.541 153.902 141.36 154.659 141.36C155.438 141.36 156.115 141.531 156.691 141.872C157.267 142.213 157.715 142.709 158.035 143.36C158.355 144.011 158.515 144.795 158.515 145.712C158.515 145.787 158.504 145.861 158.483 145.936C158.472 146.011 158.403 146.048 158.275 146.048H152.147C152.104 146.048 152.067 146.075 152.035 146.128C152.014 146.171 152.003 146.224 152.003 146.288ZM156.899 145.168C157.016 145.168 157.091 145.157 157.123 145.136C157.155 145.104 157.171 145.04 157.171 144.944C157.171 144.485 157.07 144.059 156.867 143.664C156.675 143.259 156.392 142.933 156.019 142.688C155.656 142.443 155.214 142.32 154.691 142.32C154.115 142.32 153.63 142.459 153.235 142.736C152.84 143.003 152.542 143.355 152.339 143.792C152.136 144.229 152.035 144.688 152.035 145.168H156.899ZM168.068 141.376C168.175 141.376 168.249 141.397 168.292 141.44C168.345 141.483 168.372 141.547 168.372 141.632V142.192C168.372 142.288 168.345 142.363 168.292 142.416C168.249 142.469 168.169 142.491 168.052 142.48C167.881 142.48 167.732 142.491 167.604 142.512C167.476 142.533 167.348 142.571 167.22 142.624C166.964 142.72 166.857 142.843 166.9 142.992C166.953 143.109 167.012 143.253 167.076 143.424C167.14 143.584 167.172 143.803 167.172 144.08C167.172 144.549 167.049 144.981 166.804 145.376C166.559 145.76 166.175 146.069 165.652 146.304C165.14 146.539 164.489 146.656 163.7 146.656C163.156 146.656 162.729 146.688 162.42 146.752C162.111 146.816 161.892 146.901 161.764 147.008C161.636 147.115 161.572 147.227 161.572 147.344C161.572 147.515 161.684 147.637 161.908 147.712C162.143 147.787 162.516 147.84 163.028 147.872L165.092 147.984C166.031 148.037 166.719 148.261 167.156 148.656C167.593 149.051 167.812 149.568 167.812 150.208C167.812 151.008 167.455 151.637 166.74 152.096C166.036 152.565 165.028 152.8 163.716 152.8C162.361 152.8 161.327 152.603 160.612 152.208C159.908 151.824 159.556 151.269 159.556 150.544C159.556 150.171 159.684 149.835 159.94 149.536C160.207 149.237 160.58 148.971 161.06 148.736C161.177 148.683 161.177 148.624 161.06 148.56C160.825 148.453 160.644 148.325 160.516 148.176C160.388 148.016 160.324 147.829 160.324 147.616C160.324 147.467 160.372 147.317 160.468 147.168C160.564 147.019 160.703 146.88 160.884 146.752C161.076 146.624 161.305 146.512 161.572 146.416C161.636 146.395 161.668 146.368 161.668 146.336C161.668 146.304 161.641 146.267 161.588 146.224C161.119 145.989 160.772 145.696 160.548 145.344C160.324 144.992 160.212 144.571 160.212 144.08C160.212 143.248 160.527 142.592 161.156 142.112C161.785 141.632 162.676 141.392 163.828 141.392C164.383 141.392 164.852 141.456 165.236 141.584C165.631 141.712 165.961 141.888 166.228 142.112C166.292 142.165 166.351 142.192 166.404 142.192C166.457 142.192 166.511 142.165 166.564 142.112C166.692 141.995 166.836 141.883 166.996 141.776C167.156 141.659 167.327 141.563 167.508 141.488C167.7 141.413 167.887 141.376 168.068 141.376ZM163.7 145.808C164.447 145.808 165.001 145.659 165.364 145.36C165.727 145.051 165.908 144.619 165.908 144.064C165.908 143.499 165.727 143.056 165.364 142.736C165.001 142.405 164.447 142.24 163.7 142.24C162.985 142.24 162.431 142.405 162.036 142.736C161.652 143.056 161.46 143.499 161.46 144.064C161.46 144.619 161.652 145.051 162.036 145.36C162.431 145.659 162.985 145.808 163.7 145.808ZM162.292 148.96C162.1 148.949 161.887 149.008 161.652 149.136C161.417 149.253 161.209 149.419 161.028 149.632C160.847 149.845 160.756 150.096 160.756 150.384C160.756 150.715 160.868 150.997 161.092 151.232C161.327 151.477 161.673 151.659 162.132 151.776C162.601 151.904 163.177 151.968 163.86 151.968C164.745 151.968 165.417 151.835 165.876 151.568C166.335 151.312 166.564 150.912 166.564 150.368C166.564 150.016 166.441 149.728 166.196 149.504C165.961 149.28 165.551 149.152 164.964 149.12L162.292 148.96ZM174.706 148.976C174.311 149.36 173.879 149.653 173.41 149.856C172.951 150.059 172.434 150.16 171.858 150.16C171.026 150.16 170.37 149.947 169.89 149.52C169.42 149.093 169.186 148.533 169.186 147.84C169.186 147.275 169.346 146.789 169.666 146.384C169.986 145.968 170.46 145.643 171.09 145.408C171.719 145.163 172.492 145.013 173.41 144.96L174.658 144.864C174.722 144.853 174.78 144.832 174.834 144.8C174.887 144.768 174.914 144.709 174.914 144.624V144.192C174.914 143.616 174.732 143.163 174.37 142.832C174.018 142.491 173.538 142.32 172.93 142.32C172.46 142.32 172.034 142.427 171.65 142.64C171.276 142.853 170.94 143.173 170.642 143.6C170.599 143.653 170.562 143.691 170.53 143.712C170.508 143.723 170.466 143.717 170.402 143.696L169.538 143.408C169.506 143.387 169.479 143.36 169.458 143.328C169.447 143.296 169.463 143.237 169.506 143.152C169.826 142.597 170.274 142.16 170.85 141.84C171.436 141.52 172.151 141.36 172.994 141.36C173.708 141.36 174.3 141.472 174.77 141.696C175.25 141.909 175.607 142.224 175.842 142.64C176.087 143.045 176.21 143.531 176.21 144.096V149.76C176.21 149.856 176.194 149.92 176.162 149.952C176.13 149.984 176.076 150 176.002 150H175.186C175.111 150 175.058 149.979 175.026 149.936C174.994 149.883 174.972 149.819 174.962 149.744L174.946 149.008C174.914 148.859 174.834 148.848 174.706 148.976ZM174.914 145.936C174.914 145.755 174.839 145.669 174.69 145.68L173.634 145.776C173.143 145.797 172.706 145.861 172.322 145.968C171.938 146.064 171.612 146.192 171.346 146.352C171.079 146.512 170.876 146.704 170.738 146.928C170.599 147.141 170.53 147.392 170.53 147.68C170.53 148.149 170.69 148.517 171.01 148.784C171.34 149.04 171.783 149.168 172.338 149.168C172.679 149.168 173.004 149.109 173.314 148.992C173.634 148.864 173.911 148.704 174.146 148.512C174.391 148.309 174.578 148.101 174.706 147.888C174.844 147.675 174.914 147.467 174.914 147.264V145.936ZM178.815 150C178.666 150 178.591 149.931 178.591 149.792V141.728C178.591 141.589 178.65 141.52 178.767 141.52H179.727C179.845 141.52 179.903 141.579 179.903 141.696V142.624C179.903 142.677 179.914 142.709 179.935 142.72C179.957 142.731 179.994 142.715 180.047 142.672C180.399 142.395 180.725 142.16 181.023 141.968C181.333 141.765 181.647 141.616 181.967 141.52C182.287 141.413 182.629 141.36 182.991 141.36C183.823 141.36 184.458 141.584 184.895 142.032C185.343 142.48 185.567 143.061 185.567 143.776V149.744C185.567 149.915 185.487 150 185.327 150H184.431C184.357 150 184.303 149.984 184.271 149.952C184.239 149.909 184.223 149.856 184.223 149.792V144.08C184.223 143.557 184.09 143.152 183.823 142.864C183.557 142.565 183.135 142.416 182.559 142.416C182.25 142.416 181.957 142.469 181.679 142.576C181.413 142.672 181.141 142.816 180.863 143.008C180.586 143.189 180.277 143.424 179.935 143.712V149.76C179.935 149.92 179.855 150 179.695 150H178.815ZM189.972 142.528C189.887 142.528 189.844 142.571 189.844 142.656V147.728C189.844 148.229 189.929 148.565 190.1 148.736C190.271 148.907 190.527 148.992 190.868 148.992H191.972C192.025 148.992 192.068 149.008 192.1 149.04C192.132 149.061 192.148 149.104 192.148 149.168L192.132 149.712C192.132 149.819 192.068 149.888 191.94 149.92C191.833 149.941 191.679 149.957 191.476 149.968C191.284 149.979 191.092 149.989 190.9 150C190.719 150 190.564 150 190.436 150C189.764 150 189.273 149.845 188.964 149.536C188.655 149.216 188.5 148.715 188.5 148.032V142.688C188.5 142.581 188.447 142.528 188.34 142.528H187.06C186.943 142.528 186.884 142.469 186.884 142.352V141.68C186.884 141.573 186.937 141.52 187.044 141.52H188.404C188.479 141.52 188.516 141.477 188.516 141.392L188.692 138.848C188.703 138.709 188.761 138.64 188.868 138.64H189.668C189.796 138.64 189.86 138.715 189.86 138.864V141.392C189.86 141.477 189.903 141.52 189.988 141.52H192.004C192.121 141.52 192.18 141.568 192.18 141.664V142.352C192.18 142.469 192.121 142.528 192.004 142.528H189.972Z" fill="#EFF5FA" fill-opacity="0.82"/>
</svg>
