<svg width="40" height="40" viewBox="0 0 40 40" fill="none" xmlns="http://www.w3.org/2000/svg">
<path d="M8 0.5H32C36.1421 0.5 39.5 3.85786 39.5 8V32C39.5 36.1421 36.1421 39.5 32 39.5H8C3.85786 39.5 0.5 36.1421 0.5 32V8C0.5 3.85786 3.85786 0.5 8 0.5Z" stroke="#1D3653" stroke-opacity="0.17"/>
<path d="M29 20L17 20M29 14L17 14M29 26L17 26M13 20C13 20.5523 12.5523 21 12 21C11.4477 21 11 20.5523 11 20C11 19.4477 11.4477 19 12 19C12.5523 19 13 19.4477 13 20ZM13 14C13 14.5523 12.5523 15 12 15C11.4477 15 11 14.5523 11 14C11 13.4477 11.4477 13 12 13C12.5523 13 13 13.4477 13 14ZM13 26C13 26.5523 12.5523 27 12 27C11.4477 27 11 26.5523 11 26C11 25.4477 11.4477 25 12 25C12.5523 25 13 25.4477 13 26Z" stroke="#0D0D15" stroke-width="2" stroke-linecap="round" stroke-linejoin="round"/>
</svg>
