<svg width="294" height="180" fill="none" xmlns="http://www.w3.org/2000/svg"><rect width="294" height="180" rx="20" fill="#0265DC"/><path fill-rule="evenodd" clip-rule="evenodd" d="M55.99 55.584h-8.423a.543.543 0 01-.552-.552c0-.288.24-.552.552-.552h8.424V50.4H54.575l-.048-.024h-.12l-.048-.024h-.048l-.048-.024H54.19l-.048-.024-.024-.024h-.048c-.024-.024-.048-.024-.072-.048a.183.183 0 01-.12-.048 1.711 1.711 0 01-.912-1.536v-8.664c0-.552.24-1.032.624-1.344l.048-.024.024-.024.024-.024h.024l.024-.024.024-.024h.024v-.024h.024l.024-.024h.024l.024-.024h.024l.024-.024c.24-.12.504-.192.768-.192h1.296v-.816c0-.648-.504-1.152-1.152-1.152h-13.68c-.648 0-1.152.504-1.152 1.152v3h8.424c.312 0 .552.24.552.552 0 .288-.24.552-.552.552h-8.424v4.08H41.423l.048.024h.144l.024.024h.048l.048.024H41.807v.024h.048l.024.024h.048l.048.024.024.024h.048v.024h.048l.024.024.048.024.024.024.048.024h.024l.024.024.024.024.024.024.024.024.024.024.048.024h.024v.024h.024v.024h.024v.024a.331.331 0 00.096.072v.024l.048.048.024.024.024.024v.024l.024.048.024.024.024.024c0 .024.024.048.024.072l.024.024.024.024v.024l.024.024v.024l.024.024v.048l.024.024c0 .024.024.048.024.048v.048h.024v.096c.024 0 .024.024.024.048l.024.048v.12l.024.048v8.856c0 .096 0 .192-.024.264 0 .048 0 .096-.024.12 0 .048-.024.096-.024.144l-.024.024v.048l-.024.048c0 .024-.024.048-.024.072l-.024.024v.024l-.024.024-.024.024v.024l-.024.024v.048h-.024v.024l-.024.024V57h-.024v.024h-.024v.024c-.024.024-.024.024-.024.048l-.048.024-.024.024v.024c-.312.36-.792.6-1.296.6h-1.296v.816c0 .648.504 1.152 1.152 1.152h13.68c.648 0 1.152-.504 1.152-1.152v-3zm-13.223-9.168c0 .024.024.048.024.072l-.024-.072zm14.352 22.056h-18.24c-1.416 0-2.568-1.152-2.568-2.544v-8.16h-3.744l-.048-.024h-.168l-.048-.024H32.23l-.048-.024a1.728 1.728 0 01-1.296-1.68v-8.664c0-.96.768-1.752 1.728-1.752h3.696V30.072c0-1.392 1.152-2.544 2.568-2.544h18.24c1.416 0 2.568 1.152 2.568 2.544v8.16h3.696c.96 0 1.728.792 1.728 1.752v8.664c0 .96-.768 1.752-1.728 1.752h-3.696v15.528c0 1.392-1.152 2.544-2.568 2.544zM36.863 56.664h1.464l-.936-.936-.024-.024-3.048-3.048-2.352 2.376v1.08l.024.024V56.208l.024.024v.048h.024v.048l.024.024v.024h.024v.024l.024.024.024.024.024.024.024.024v.024h.024l.024.024.024.024h.024l.024.024h.024l.024.024h.048v.024H32.47l.024.024h4.368zm17.208-7.92v.096c.024 0 .024.024.024.048v.024h.024v.048h.024v.024l.024.024v.024h.024v.024l.024.024c.024.024.024.048.048.048v.024c.12.096.288.144.432.144h8.688c.36 0 .648-.288.648-.648v-8.664a.645.645 0 00-.648-.648h-8.688a.67.67 0 00-.624.48v.12h-.024V48.696h.024v.048zm-16.656 9.024v4.56h21.168V50.4h-1.488v8.184a2.253 2.253 0 01-2.256 2.256h-13.68a2.253 2.253 0 01-2.256-2.256v-.816h-1.488zm0 5.664v2.496a1.47 1.47 0 001.464 1.464h18.24a1.47 1.47 0 001.464-1.464v-2.496H37.415zm19.68-25.2h1.488v-4.56H37.415V45.6h1.488v-8.184a2.253 2.253 0 012.256-2.256h13.68a2.253 2.253 0 012.256 2.256v.816zm1.488-5.664v-2.496a1.47 1.47 0 00-1.464-1.464H52.51v.48c0 .888-.72 1.584-1.584 1.584H45.07a1.582 1.582 0 01-1.584-1.584v-.48h-4.608a1.47 1.47 0 00-1.464 1.464v2.496h21.168zm-13.992-3.96v.48c0 .288.216.504.48.504h5.856c.264 0 .48-.216.48-.504v-.48H44.59zm5.448 37.344h-4.272a.538.538 0 01-.528-.552c0-.288.24-.528.528-.528h4.272c.312 0 .552.24.552.528 0 .312-.24.552-.552.552zm-10.2-9.288h1.464a.661.661 0 00.648-.648v-.792l-1.656-1.656-1.752 1.776 1.008 1.008.192.192h.024v.024a.331.331 0 01.072.096zm2.112-3v-6.312a.512.512 0 00-.072-.288c-.024-.024-.024-.024-.024-.048l-.024-.024v-.024h-.024v-.024l-.024-.024v-.024h-.024l-.024-.024-.024-.024-.024-.024h-.024V46.8h-.024l-.024-.024h-.024v-.024h-.024a.863.863 0 00-.264-.048h-8.688a.645.645 0 00-.648.648v6.12l1.968-1.968c.216-.216.576-.216.768 0l3.072 3.048 2.136-2.136c.216-.216.576-.216.768 0l1.272 1.248zm12.12-3.384c-.024-.024-.048-.024-.072-.048l.072.048zm-16.152 1.848a2.14 2.14 0 01-2.136-2.136 2.14 2.14 0 012.136-2.136 2.14 2.14 0 012.136 2.136 2.14 2.14 0 01-2.136 2.136zm0-3.192c-.576 0-1.056.48-1.056 1.056 0 .576.48 1.056 1.056 1.056.576 0 1.056-.48 1.056-1.056 0-.576-.48-1.056-1.056-1.056zm24.24-6.6h-3.48a.558.558 0 01-.552-.552c0-.288.264-.552.552-.552h3.48c.288 0 .528.264.528.552 0 .312-.24.552-.528.552zm-5.232 0h-.984a.543.543 0 01-.552-.552c0-.288.24-.552.552-.552h.984c.312 0 .552.264.552.552 0 .312-.24.552-.552.552zm5.232 2.52h-.888a.538.538 0 01-.552-.528c0-.312.24-.552.552-.552h.888c.288 0 .528.24.528.552 0 .288-.24.528-.528.528zm-3.12 0h-3.096a.538.538 0 01-.552-.528c0-.312.24-.552.552-.552h3.096c.288 0 .552.24.552.552 0 .288-.264.528-.552.528zm3.12 2.544H59.47a.558.558 0 01-.552-.552c0-.288.264-.552.552-.552h2.688c.288 0 .528.264.528.552 0 .312-.24.552-.528.552zm-4.968 0h-1.248a.543.543 0 01-.552-.552c0-.288.24-.552.552-.552h1.248c.288 0 .552.264.552.552a.558.558 0 01-.552.552z" fill="#fff"/><path d="M24.308 117l7.196-20.86h4.928L43.628 117h-4.144L38 112.52h-8.064L28.424 117h-4.116zm6.72-7.84h5.88l-3.472-10.388H34.5l-3.472 10.388zm14.614 13.44v-20.832h3.444v3.024l-.336-.756a5.257 5.257 0 012.128-1.904c.896-.467 1.932-.7 3.108-.7 1.437 0 2.734.355 3.892 1.064a7.743 7.743 0 012.744 2.856c.69 1.195 1.036 2.539 1.036 4.032 0 1.475-.336 2.819-1.008 4.032a7.688 7.688 0 01-2.744 2.884c-1.158.691-2.474 1.036-3.948 1.036-1.102 0-2.12-.215-3.052-.644a5.413 5.413 0 01-2.184-1.904l.588-.728v8.54h-3.668zm7.896-8.624c.84 0 1.586-.196 2.24-.588a3.965 3.965 0 001.512-1.624c.373-.691.56-1.484.56-2.38 0-.896-.187-1.68-.56-2.352a3.965 3.965 0 00-1.512-1.624c-.654-.411-1.4-.616-2.24-.616-.803 0-1.531.196-2.184.588-.635.392-1.14.943-1.512 1.652-.355.691-.532 1.475-.532 2.352 0 .896.177 1.689.532 2.38a4.228 4.228 0 001.512 1.624 4.163 4.163 0 002.184.588zm10.916 8.624v-20.832h3.444v3.024l-.336-.756a5.257 5.257 0 012.128-1.904c.896-.467 1.932-.7 3.108-.7 1.437 0 2.735.355 3.892 1.064a7.743 7.743 0 012.744 2.856c.69 1.195 1.036 2.539 1.036 4.032 0 1.475-.336 2.819-1.008 4.032a7.688 7.688 0 01-2.744 2.884c-1.157.691-2.473 1.036-3.948 1.036-1.101 0-2.119-.215-3.052-.644a5.413 5.413 0 01-2.184-1.904l.588-.728v8.54h-3.668zm7.896-8.624c.84 0 1.587-.196 2.24-.588a3.965 3.965 0 001.512-1.624c.373-.691.56-1.484.56-2.38 0-.896-.187-1.68-.56-2.352a3.965 3.965 0 00-1.512-1.624c-.653-.411-1.4-.616-2.24-.616-.803 0-1.53.196-2.184.588-.635.392-1.139.943-1.512 1.652-.355.691-.532 1.475-.532 2.352 0 .896.177 1.689.532 2.38a4.228 4.228 0 001.512 1.624 4.163 4.163 0 002.184.588zM88.551 117V96.14h3.808V117h-3.808zm14.848.336c-1.512 0-2.874-.345-4.088-1.036a7.822 7.822 0 01-2.828-2.856c-.69-1.213-1.035-2.576-1.035-4.088s.345-2.865 1.036-4.06a7.613 7.613 0 012.828-2.828c1.213-.691 2.575-1.036 4.087-1.036 1.083 0 2.091.196 3.024.588a7.066 7.066 0 012.408 1.568 5.548 5.548 0 011.484 2.352l-3.22 1.4a3.785 3.785 0 00-1.428-1.848c-.653-.467-1.409-.7-2.268-.7-.802 0-1.521.196-2.156.588a4.093 4.093 0 00-1.456 1.624c-.354.691-.532 1.484-.532 2.38 0 .896.178 1.689.532 2.38.355.691.84 1.232 1.456 1.624.635.392 1.354.588 2.156.588.878 0 1.643-.233 2.296-.7a3.824 3.824 0 001.4-1.876l3.22 1.456a6.248 6.248 0 01-1.456 2.324 7.426 7.426 0 01-2.408 1.596c-.933.373-1.95.56-3.052.56zm17.148 0c-1.494 0-2.856-.345-4.088-1.036a7.976 7.976 0 01-2.912-2.828c-.71-1.195-1.064-2.557-1.064-4.088 0-1.531.354-2.893 1.064-4.088a7.976 7.976 0 012.912-2.828c1.213-.691 2.576-1.036 4.088-1.036 1.493 0 2.846.345 4.06 1.036a7.771 7.771 0 012.884 2.828c.728 1.176 1.092 2.539 1.092 4.088 0 1.531-.364 2.893-1.092 4.088a7.984 7.984 0 01-2.912 2.828c-1.214.691-2.558 1.036-4.032 1.036zm0-3.36c.821 0 1.54-.196 2.156-.588a4.033 4.033 0 001.484-1.624c.373-.709.56-1.503.56-2.38 0-.896-.187-1.68-.56-2.352a4.033 4.033 0 00-1.484-1.624c-.616-.411-1.335-.616-2.156-.616-.84 0-1.578.205-2.212.616a4.223 4.223 0 00-1.512 1.624c-.355.672-.532 1.456-.532 2.352 0 .877.177 1.671.532 2.38a4.223 4.223 0 001.512 1.624c.634.392 1.372.588 2.212.588zM131.364 117v-15.232h3.444v2.996l-.28-.532c.355-.915.934-1.605 1.736-2.072.822-.485 1.774-.728 2.856-.728 1.12 0 2.11.243 2.968.728a5.122 5.122 0 012.044 2.044c.486.859.728 1.857.728 2.996v9.8h-3.668v-8.932c0-.672-.13-1.251-.392-1.736a2.74 2.74 0 00-1.092-1.12c-.448-.28-.98-.42-1.596-.42-.597 0-1.129.14-1.596.42-.466.261-.83.635-1.092 1.12-.261.485-.392 1.064-.392 1.736V117h-3.668zm22.394.336c-1.624 0-3.043-.383-4.256-1.148-1.195-.784-2.016-1.839-2.464-3.164l2.744-1.316c.392.859.933 1.531 1.624 2.016a4.075 4.075 0 002.352.728c.672 0 1.204-.149 1.596-.448a1.41 1.41 0 00.588-1.176c0-.299-.084-.541-.252-.728a1.625 1.625 0 00-.644-.504 4.04 4.04 0 00-.868-.364l-2.492-.7c-1.288-.373-2.268-.943-2.94-1.708-.653-.765-.98-1.671-.98-2.716 0-.933.233-1.745.7-2.436.485-.709 1.148-1.26 1.988-1.652.859-.392 1.839-.588 2.94-.588 1.437 0 2.707.345 3.808 1.036 1.101.691 1.885 1.661 2.352 2.912l-2.8 1.316a3.374 3.374 0 00-1.316-1.652 3.65 3.65 0 00-2.072-.616c-.616 0-1.101.14-1.456.42-.355.28-.532.644-.532 1.092 0 .28.075.523.224.728.149.205.355.373.616.504.28.131.597.252.952.364l2.436.728c1.251.373 2.212.933 2.884 1.68.691.747 1.036 1.661 1.036 2.744 0 .915-.243 1.727-.728 2.436-.485.691-1.157 1.232-2.016 1.624-.859.392-1.867.588-3.024.588z" fill="#F8F7FF"/><path d="M27.216 144.448c-.085 0-.128.043-.128.128v5.184c0 .16-.09.24-.272.24h-1.04c-.085 0-.144-.016-.176-.048a.287.287 0 01-.048-.176v-11.424c0-.149.064-.224.192-.224h1.152c.128 0 .192.069.192.208v4.704c0 .128.059.192.176.192h5.248c.107 0 .16-.064.16-.192v-4.72c0-.128.059-.192.176-.192h1.168c.128 0 .192.075.192.224v11.424a.287.287 0 01-.048.176c-.032.032-.09.048-.176.048h-1.04c-.181 0-.272-.08-.272-.24v-5.168c0-.096-.048-.144-.144-.144h-5.312zm11.126 5.28c0 .107-.022.181-.064.224-.032.032-.107.048-.224.048h-.816c-.096 0-.16-.016-.192-.048s-.048-.091-.048-.176v-8.032c0-.149.064-.224.192-.224h.976c.117 0 .176.069.176.208v8zm.064-10.032c0 .203-.096.304-.288.304h-.928c-.096 0-.16-.021-.192-.064a.4.4 0 01-.048-.208v-1.344c0-.171.074-.256.224-.256h1.008c.149 0 .224.08.224.24v1.328zm10.084 1.68c.106 0 .181.021.224.064.053.043.08.107.08.192v.56a.302.302 0 01-.08.224c-.043.053-.123.075-.24.064-.17 0-.32.011-.448.032a1.741 1.741 0 00-.384.112c-.256.096-.363.219-.32.368.053.117.112.261.176.432.064.16.096.379.096.656 0 .469-.123.901-.368 1.296-.246.384-.63.693-1.152.928-.512.235-1.163.352-1.952.352-.544 0-.97.032-1.28.096-.31.064-.528.149-.656.256-.128.107-.192.219-.192.336 0 .171.112.293.336.368.234.075.608.128 1.12.16l2.064.112c.938.053 1.626.277 2.064.672.437.395.656.912.656 1.552 0 .8-.358 1.429-1.072 1.888-.704.469-1.712.704-3.024.704-1.355 0-2.39-.197-3.104-.592-.704-.384-1.056-.939-1.056-1.664 0-.373.128-.709.384-1.008.266-.299.64-.565 1.12-.8.117-.053.117-.112 0-.176a1.552 1.552 0 01-.544-.384.87.87 0 01-.192-.56c0-.149.048-.299.144-.448.096-.149.234-.288.416-.416.192-.128.421-.24.688-.336.064-.021.096-.048.096-.08s-.027-.069-.08-.112c-.47-.235-.816-.528-1.04-.88-.224-.352-.336-.773-.336-1.264 0-.832.314-1.488.944-1.968.63-.48 1.52-.72 2.672-.72.554 0 1.024.064 1.408.192.394.128.725.304.992.528.064.053.122.08.176.08.053 0 .106-.027.16-.08.128-.117.272-.229.432-.336.16-.117.33-.213.512-.288.192-.075.378-.112.56-.112zm-4.368 4.432c.746 0 1.301-.149 1.664-.448.362-.309.544-.741.544-1.296 0-.565-.182-1.008-.544-1.328-.363-.331-.918-.496-1.664-.496-.715 0-1.27.165-1.664.496-.384.32-.576.763-.576 1.328 0 .555.192.987.576 1.296.394.299.95.448 1.664.448zm-1.408 3.152c-.192-.011-.406.048-.64.176a1.974 1.974 0 00-.624.496 1.124 1.124 0 00-.272.752c0 .331.112.613.336.848.234.245.581.427 1.04.544.47.128 1.045.192 1.728.192.885 0 1.557-.133 2.016-.4.458-.256.688-.656.688-1.2 0-.352-.123-.64-.368-.864-.235-.224-.646-.352-1.232-.384l-2.672-.16zm7.96 1.04c-.138 0-.207-.069-.207-.208v-11.456c0-.139.058-.208.176-.208h.944c.117 0 .176.064.176.192v4.272c0 .053.01.085.032.096.021.011.058-.005.112-.048.373-.288.714-.528 1.024-.72.32-.192.63-.331.928-.416.31-.096.645-.144 1.008-.144.832 0 1.466.224 1.904.672.437.437.656 1.024.656 1.76v5.952c0 .171-.08.256-.24.256h-.896c-.075 0-.128-.016-.16-.048a.26.26 0 01-.048-.16v-5.712c0-.523-.134-.928-.4-1.216-.267-.299-.688-.448-1.264-.448-.31 0-.603.053-.88.16-.267.096-.539.24-.816.432a8.446 8.446 0 00-.912.704v6.048c0 .16-.086.24-.256.24h-.88zm12.992-3.92c0 .149-.09.224-.271.224h-3.633a.303.303 0 01-.16-.032c-.031-.032-.047-.085-.047-.16v-.704c0-.117.047-.176.144-.176l3.808-.016c.106 0 .16.053.16.16v.704zm9.102-4.56c.086 0 .144.021.176.064.043.032.064.101.064.208v10.64c0 .139-.064.208-.192.208h-.976c-.117 0-.176-.069-.176-.208v-2.944c0-.128-.016-.203-.048-.224-.032-.021-.096.011-.192.096-.277.213-.618.4-1.024.56-.405.16-.853.24-1.344.24-.746 0-1.392-.181-1.936-.544-.544-.363-.965-.875-1.264-1.536-.288-.661-.432-1.445-.432-2.352 0-.875.144-1.637.432-2.288.288-.661.704-1.173 1.248-1.536.555-.363 1.216-.544 1.984-.544.544 0 .987.069 1.328.208.342.139.614.299.816.48.214.171.379.32.496.448.096.107.155.091.176-.048l.112-.672c.022-.096.048-.16.08-.192.043-.043.112-.064.208-.064h.464zm-1.104 2.864c0-.363-.101-.699-.304-1.008a2.13 2.13 0 00-.8-.768 2.157 2.157 0 00-1.152-.304c-.48 0-.917.123-1.312.368-.394.245-.71.624-.944 1.136-.234.501-.352 1.136-.352 1.904 0 .747.112 1.381.336 1.904.224.512.534.901.928 1.168.395.267.848.4 1.36.4.427 0 .832-.091 1.216-.272a3.105 3.105 0 001.024-.752v-3.776zm6.682 4.72c.459 0 .896-.123 1.312-.368a6.334 6.334 0 001.264-1.024v-5.952c0-.16.086-.24.256-.24h.88c.15 0 .224.075.224.224l-.032 8.048c0 .139-.058.208-.176.208h-.928c-.117 0-.176-.059-.176-.176v-.944c0-.053-.01-.085-.032-.096-.021-.011-.058.005-.112.048-.586.501-1.109.848-1.568 1.04a3.388 3.388 0 01-1.344.288c-.49 0-.928-.101-1.312-.304a2.328 2.328 0 01-.912-.848c-.224-.373-.336-.805-.336-1.296v-5.936c0-.171.08-.256.24-.256h.896c.139 0 .208.075.208.224v5.616c0 .523.144.944.432 1.264.299.32.704.48 1.216.48zm11.266-.128a4.303 4.303 0 01-1.296.88 3.796 3.796 0 01-1.552.304c-.832 0-1.488-.213-1.968-.64-.47-.427-.704-.987-.704-1.68 0-.565.16-1.051.48-1.456.32-.416.795-.741 1.424-.976.63-.245 1.403-.395 2.32-.448l1.248-.096a.504.504 0 00.176-.064c.053-.032.08-.091.08-.176v-.432c0-.576-.181-1.029-.544-1.36-.352-.341-.832-.512-1.44-.512-.47 0-.896.107-1.28.32-.373.213-.71.533-1.008.96a.547.547 0 01-.112.112c-.021.011-.064.005-.128-.016l-.864-.288a.28.28 0 01-.08-.08c-.01-.032.005-.091.048-.176.32-.555.768-.992 1.344-1.312.587-.32 1.301-.48 2.144-.48.715 0 1.307.112 1.776.336.48.213.837.528 1.072.944.245.405.368.891.368 1.456v5.664c0 .096-.016.16-.048.192s-.085.048-.16.048h-.816c-.075 0-.128-.021-.16-.064a.506.506 0 01-.064-.192l-.016-.736c-.032-.149-.112-.16-.24-.032zm.208-3.04c0-.181-.075-.267-.224-.256l-1.056.096c-.49.021-.928.085-1.312.192-.384.096-.71.224-.976.384a1.76 1.76 0 00-.608.576 1.348 1.348 0 00-.208.752c0 .469.16.837.48 1.104.33.256.773.384 1.328.384.341 0 .667-.059.976-.176.32-.128.597-.288.832-.48.245-.203.432-.411.56-.624.139-.213.208-.421.208-.624v-1.328zm5.038 3.792c0 .107-.022.181-.064.224-.043.032-.118.048-.224.048h-.832c-.16 0-.24-.075-.24-.224l.016-11.424c0-.149.064-.224.192-.224h.96c.128 0 .192.069.192.208v11.392zm3.812 0c0 .107-.022.181-.064.224-.032.032-.107.048-.224.048h-.816c-.096 0-.16-.016-.192-.048s-.048-.091-.048-.176v-8.032c0-.149.064-.224.192-.224h.976c.117 0 .176.069.176.208v8zm.064-10.032c0 .203-.096.304-.288.304h-.928c-.096 0-.16-.021-.192-.064a.4.4 0 01-.048-.208v-1.344c0-.171.074-.256.224-.256h1.008c.15 0 .224.08.224.24v1.328zm4.66 2.832c-.085 0-.128.043-.128.128v5.072c0 .501.085.837.256 1.008.171.171.427.256.768.256h1.104c.053 0 .096.016.128.048.032.021.048.064.048.128l-.016.544c0 .107-.064.176-.192.208a3.578 3.578 0 01-.464.048l-.576.032h-.464c-.672 0-1.163-.155-1.472-.464-.309-.32-.464-.821-.464-1.504v-5.344c0-.107-.053-.16-.16-.16h-1.28c-.117 0-.176-.059-.176-.176v-.672c0-.107.053-.16.16-.16h1.36c.075 0 .112-.043.112-.128l.176-2.544c.011-.139.069-.208.176-.208h.8c.128 0 .192.075.192.224v2.528c0 .085.043.128.128.128h2.016c.117 0 .176.048.176.144v.688c0 .117-.059.176-.176.176h-2.032zm4.411 10.112c-.309 0-.549-.011-.72-.032-.17-.021-.256-.08-.256-.176v-.624c0-.075.027-.128.08-.16.064-.032.187-.048.368-.048h1.008c.235 0 .448-.08.64-.24.192-.149.352-.341.48-.576.128-.235.214-.475.256-.72a1.092 1.092 0 00-.048-.624l-3.056-7.648a.298.298 0 010-.192c.032-.053.091-.08.176-.08h.992c.064 0 .118.016.16.048.043.021.075.064.096.128l2.384 6.208c.043.096.091.144.144.144.054 0 .102-.064.144-.192l2.352-6.16a.327.327 0 01.096-.128.174.174 0 01.128-.048h.752c.075 0 .128.027.16.08.032.043.032.096 0 .16l-3.52 8.992a4.033 4.033 0 01-.496.944 1.924 1.924 0 01-.624.56 2.188 2.188 0 01-.752.288 4.213 4.213 0 01-.944.096zM125.48 145.488c-.277 0-.533-.069-.768-.208a1.664 1.664 0 01-.544-.544 1.481 1.481 0 01-.208-.768c0-.277.069-.528.208-.752.139-.235.32-.421.544-.56.235-.139.491-.208.768-.208s.528.069.752.208c.235.139.421.325.56.56.139.224.208.475.208.752s-.069.533-.208.768a1.613 1.613 0 01-.56.544 1.398 1.398 0 01-.752.208zM137.552 138.352c0-.149.064-.224.192-.224h7.184c.107 0 .16.059.16.176v.816c0 .128-.069.192-.208.192h-5.584c-.139 0-.208.064-.208.192v3.744c0 .117.059.176.176.176h4.144c.117 0 .176.059.176.176v.848c0 .043-.011.08-.032.112-.021.021-.069.032-.144.032h-4.144c-.117 0-.176.059-.176.176v3.888c0 .107.053.16.16.16h5.872c.117 0 .176.053.176.16v.848a.174.174 0 01-.048.128c-.021.032-.064.048-.128.048h-7.344c-.149 0-.224-.075-.224-.224v-11.424zm11.087 11.376c0 .107-.021.181-.064.224-.043.032-.117.048-.224.048h-.832c-.16 0-.24-.075-.24-.224l.016-11.424c0-.149.064-.224.192-.224h.96c.128 0 .192.069.192.208v11.392zm3.364-3.44c0 .523.123 1.003.368 1.44.256.427.592.768 1.008 1.024.427.256.901.384 1.424.384.533 0 1.008-.107 1.424-.32.416-.224.773-.56 1.072-1.008.043-.043.075-.064.096-.064.032-.011.075-.005.128.016l.672.336c.096.053.107.128.032.224a4.601 4.601 0 01-.96 1.056 3.462 3.462 0 01-1.152.592 5.01 5.01 0 01-1.44.192c-.789 0-1.488-.181-2.096-.544a3.878 3.878 0 01-1.44-1.52c-.352-.651-.528-1.403-.528-2.256 0-.928.176-1.723.528-2.384.363-.672.848-1.189 1.456-1.552a4.004 4.004 0 012.064-.544c.779 0 1.456.171 2.032.512.576.341 1.024.837 1.344 1.488.32.651.48 1.435.48 2.352a.825.825 0 01-.032.224c-.011.075-.08.112-.208.112h-6.128c-.043 0-.08.027-.112.08a.362.362 0 00-.032.16zm4.896-1.12c.117 0 .192-.011.224-.032.032-.032.048-.096.048-.192 0-.459-.101-.885-.304-1.28a2.352 2.352 0 00-.848-.976c-.363-.245-.805-.368-1.328-.368-.576 0-1.061.139-1.456.416a2.542 2.542 0 00-.896 1.056 3.229 3.229 0 00-.304 1.376h4.864zm11.169-3.792c.107 0 .181.021.224.064.053.043.08.107.08.192v.56a.304.304 0 01-.08.224c-.043.053-.123.075-.24.064-.171 0-.32.011-.448.032a1.741 1.741 0 00-.384.112c-.256.096-.363.219-.32.368.053.117.112.261.176.432.064.16.096.379.096.656 0 .469-.123.901-.368 1.296-.245.384-.629.693-1.152.928-.512.235-1.163.352-1.952.352-.544 0-.971.032-1.28.096-.309.064-.528.149-.656.256-.128.107-.192.219-.192.336 0 .171.112.293.336.368.235.075.608.128 1.12.16l2.064.112c.939.053 1.627.277 2.064.672.437.395.656.912.656 1.552 0 .8-.357 1.429-1.072 1.888-.704.469-1.712.704-3.024.704-1.355 0-2.389-.197-3.104-.592-.704-.384-1.056-.939-1.056-1.664 0-.373.128-.709.384-1.008.267-.299.64-.565 1.12-.8.117-.053.117-.112 0-.176a1.55 1.55 0 01-.544-.384.87.87 0 01-.192-.56c0-.149.048-.299.144-.448.096-.149.235-.288.416-.416.192-.128.421-.24.688-.336.064-.021.096-.048.096-.08s-.027-.069-.08-.112c-.469-.235-.816-.528-1.04-.88-.224-.352-.336-.773-.336-1.264 0-.832.315-1.488.944-1.968s1.52-.72 2.672-.72c.555 0 1.024.064 1.408.192.395.128.725.304.992.528.064.053.123.08.176.08.053 0 .107-.027.16-.08.128-.117.272-.229.432-.336.16-.117.331-.213.512-.288.192-.075.379-.112.56-.112zm-4.368 4.432c.747 0 1.301-.149 1.664-.448.363-.309.544-.741.544-1.296 0-.565-.181-1.008-.544-1.328-.363-.331-.917-.496-1.664-.496-.715 0-1.269.165-1.664.496-.384.32-.576.763-.576 1.328 0 .555.192.987.576 1.296.395.299.949.448 1.664.448zm-1.408 3.152c-.192-.011-.405.048-.64.176a1.967 1.967 0 00-.624.496 1.126 1.126 0 00-.272.752c0 .331.112.613.336.848.235.245.581.427 1.04.544.469.128 1.045.192 1.728.192.885 0 1.557-.133 2.016-.4.459-.256.688-.656.688-1.2 0-.352-.123-.64-.368-.864-.235-.224-.645-.352-1.232-.384l-2.672-.16zm12.414.016a4.31 4.31 0 01-1.296.88 3.797 3.797 0 01-1.552.304c-.832 0-1.488-.213-1.968-.64-.47-.427-.704-.987-.704-1.68 0-.565.16-1.051.48-1.456.32-.416.794-.741 1.424-.976.629-.245 1.402-.395 2.32-.448l1.248-.096a.51.51 0 00.176-.064c.053-.032.08-.091.08-.176v-.432c0-.576-.182-1.029-.544-1.36-.352-.341-.832-.512-1.44-.512-.47 0-.896.107-1.28.32-.374.213-.71.533-1.008.96a.554.554 0 01-.112.112c-.022.011-.064.005-.128-.016l-.864-.288a.277.277 0 01-.08-.08c-.011-.032.005-.091.048-.176.32-.555.768-.992 1.344-1.312.586-.32 1.301-.48 2.144-.48.714 0 1.306.112 1.776.336.48.213.837.528 1.072.944.245.405.368.891.368 1.456v5.664c0 .096-.016.16-.048.192s-.086.048-.16.048h-.816c-.075 0-.128-.021-.16-.064a.495.495 0 01-.064-.192l-.016-.736c-.032-.149-.112-.16-.24-.032zm.208-3.04c0-.181-.075-.267-.224-.256l-1.056.096a5.83 5.83 0 00-1.312.192c-.384.096-.71.224-.976.384-.267.16-.47.352-.608.576a1.345 1.345 0 00-.208.752c0 .469.16.837.48 1.104.33.256.773.384 1.328.384.341 0 .666-.059.976-.176.32-.128.597-.288.832-.48.245-.203.432-.411.56-.624.138-.213.208-.421.208-.624v-1.328zm3.901 4.064c-.149 0-.224-.069-.224-.208v-8.064c0-.139.059-.208.176-.208h.96c.118 0 .176.059.176.176v.928c0 .053.011.085.032.096.022.011.059-.005.112-.048.352-.277.678-.512.976-.704.31-.203.624-.352.944-.448.32-.107.662-.16 1.024-.16.832 0 1.467.224 1.904.672.448.448.672 1.029.672 1.744v5.968c0 .171-.08.256-.24.256h-.896c-.074 0-.128-.016-.16-.048a.26.26 0 01-.048-.16v-5.712c0-.523-.133-.928-.4-1.216-.266-.299-.688-.448-1.264-.448-.309 0-.602.053-.88.16-.266.096-.538.24-.816.432a9.794 9.794 0 00-.928.704v6.048c0 .16-.08.24-.24.24h-.88zm11.157-7.472c-.085 0-.128.043-.128.128v5.072c0 .501.085.837.256 1.008.171.171.427.256.768.256h1.104c.053 0 .096.016.128.048.032.021.048.064.048.128l-.016.544c0 .107-.064.176-.192.208a3.578 3.578 0 01-.464.048l-.576.032h-.464c-.672 0-1.163-.155-1.472-.464-.309-.32-.464-.821-.464-1.504v-5.344c0-.107-.053-.16-.16-.16h-1.28c-.117 0-.176-.059-.176-.176v-.672c0-.107.053-.16.16-.16h1.36c.075 0 .112-.043.112-.128l.176-2.544c.011-.139.069-.208.176-.208h.8c.128 0 .192.075.192.224v2.528c0 .085.043.128.128.128h2.016c.117 0 .176.048.176.144v.688c0 .117-.059.176-.176.176h-2.032z" fill="#EFF5FA"/></svg>