<svg width="40" height="40" fill="none" xmlns="http://www.w3.org/2000/svg"><path d="M0 8a8 8 0 018-8h24a8 8 0 018 8v24a8 8 0 01-8 8H8a8 8 0 01-8-8V8z" fill="#0265DC"/><path d="M16.4 11h-3.8c-.56 0-.84 0-1.054.109a1 1 0 00-.437.437C11 11.76 11 12.04 11 12.6v3.8c0 .56 0 .84.109 1.054a1 1 0 00.437.437C11.76 18 12.04 18 12.6 18h3.8c.56 0 .84 0 1.054-.109a1 1 0 00.437-.437C18 17.24 18 16.96 18 16.4v-3.8c0-.56 0-.84-.109-1.054a1 1 0 00-.437-.437C17.24 11 16.96 11 16.4 11zM27.4 11h-3.8c-.56 0-.84 0-1.054.109a1 1 0 00-.437.437C22 11.76 22 12.04 22 12.6v3.8c0 .56 0 .84.109 1.054a1 1 0 00.437.437C22.76 18 23.04 18 23.6 18h3.8c.56 0 .84 0 1.054-.109a1 1 0 00.437-.437C29 17.24 29 16.96 29 16.4v-3.8c0-.56 0-.84-.109-1.054a1 1 0 00-.437-.437C28.24 11 27.96 11 27.4 11zM27.4 22h-3.8c-.56 0-.84 0-1.054.109a1 1 0 00-.437.437C22 22.76 22 23.04 22 23.6v3.8c0 .56 0 .84.109 1.054a1 1 0 00.437.437C22.76 29 23.04 29 23.6 29h3.8c.56 0 .84 0 1.054-.109a1 1 0 00.437-.437C29 28.24 29 27.96 29 27.4v-3.8c0-.56 0-.84-.109-1.054a1 1 0 00-.437-.437C28.24 22 27.96 22 27.4 22zM16.4 22h-3.8c-.56 0-.84 0-1.054.109a1 1 0 00-.437.437C11 22.76 11 23.04 11 23.6v3.8c0 .56 0 .84.109 1.054a1 1 0 00.437.437C11.76 29 12.04 29 12.6 29h3.8c.56 0 .84 0 1.054-.109a1 1 0 00.437-.437C18 28.24 18 27.96 18 27.4v-3.8c0-.56 0-.84-.109-1.054a1 1 0 00-.437-.437C17.24 22 16.96 22 16.4 22z" stroke="#F8F7FF" stroke-width="2" stroke-linecap="round" stroke-linejoin="round"/></svg>