<svg width="48" height="48" fill="none" xmlns="http://www.w3.org/2000/svg"><mask id="a" style="mask-type:luminance" maskUnits="userSpaceOnUse" x="0" y="0" width="48" height="48"><path d="M0 0h48v48H0V0z" fill="#fff"/></mask><g mask="url(#a)" stroke="#0265DC" stroke-miterlimit="10" stroke-linecap="round" stroke-linejoin="round"><path d="M13.526 45.772h18.51a.47.47 0 00.468-.468v-1.097c0-.864-.707-1.568-1.568-1.568H14.623a1.57 1.57 0 00-1.565 1.568v1.097c0 .258.21.468.467.468zM16.555 42.639l1.251-4.186m9.953 0l1.249 4.186M5.813 34.897h30.292M.703 26.125c0 .68.555 1.238 1.236 1.238h27.874a1.24 1.24 0 001.236-1.238V3.464c0-.68-.555-1.236-1.236-1.236H1.94c-.68 0-1.236.555-1.236 1.236v22.66z"/><path d="M21.162 38.453H7.093c-.704 0-1.28-.577-1.28-1.28v-9.81m30.292 11.09H24.396m6.655-23.543h7.425c.704 0 1.28.576 1.28 1.28v12.802M17.501 8.787H31.05m-30.346 0h13.55M27.332 5.505v.005M23.855 5.505v.005M20.379 5.505v.005M4.422 5.505l7.196.005M26.954 12.41H16.542a.477.477 0 00-.476.475v3.138a.48.48 0 00.476.479h10.412a.48.48 0 00.476-.479v-3.138a.477.477 0 00-.476-.476zM27.43 20.411H16.066M21.613 23.741h5.817m-11.364 0h1.736M41.7 42.96h-.024"/><path d="M37.4 45.772h8.602a1.3 1.3 0 001.297-1.297V30.286a1.3 1.3 0 00-1.297-1.294H37.4c-.712 0-1.294.582-1.294 1.294v14.19c0 .714.581 1.296 1.294 1.296zM4.803 12.41h7.167c.263 0 .478.212.478.475v10.378a.48.48 0 01-.478.478H4.803a.48.48 0 01-.479-.478V12.885c0-.263.216-.476.479-.476z"/></g></svg>