<svg width="225" height="224" fill="none" xmlns="http://www.w3.org/2000/svg"><rect width="224" height="224" rx="20" fill="#F4F7FA"/><path d="M112.398 97.938v28.124M103.023 97.938h18.75M145.211 144.812H79.586V79.187h65.625v65.625z" stroke="#0F73F6" stroke-width="4" stroke-miterlimit="10" stroke-linecap="round" stroke-linejoin="round"/><mask id="a" style="mask-type:luminance" maskUnits="userSpaceOnUse" x="37" y="37" width="151" height="150"><path d="M37.398 37h150v150h-150V37z" fill="#fff"/></mask><g mask="url(#a)" stroke="#0F73F6" stroke-width="4" stroke-miterlimit="10" stroke-linecap="round" stroke-linejoin="round"><path d="M60.836 60.438H41.793V41.394h19.043v19.044zM60.836 182.605H41.793v-19.042h19.043v19.042zM183.004 182.605h-19.043v-19.042h19.043v19.042zM51.46 60.438v103.124M163.961 60.438h19.043V41.394h-19.043v19.044zM173.336 79.188v9.374M173.336 107.313v9.375M173.336 135.438v9.374M60.836 51.063H163.96M145.211 172.938h-9.375M117.086 172.938h-9.375M88.96 172.938h-9.374"/></g></svg>