<svg width="108" height="22" fill="none" xmlns="http://www.w3.org/2000/svg"><path d="M0 21.155V.715h7.874c1.413 0 2.661.246 3.744.74 1.101.494 1.964 1.226 2.588 2.195.624.97.936 2.168.936 3.594 0 1.39-.321 2.57-.964 3.54-.624.969-1.486 1.71-2.588 2.222-1.082.494-2.321.74-3.716.74H4.267v7.409H0zm4.267-11.112h3.634c.606 0 1.13-.12 1.57-.357a2.52 2.52 0 001.018-.988c.257-.42.386-.905.386-1.454 0-.567-.129-1.06-.386-1.481a2.52 2.52 0 00-1.018-.988c-.44-.238-.964-.357-1.57-.357H4.267v5.625zM17.026 21.155V6.175h4.13v14.98h-4.13zm0-16.325V.714h4.13V4.83h-4.13zM22.443 21.155l5.258-7.518-5.286-7.463h4.79l3.965 5.817h-2.092l3.964-5.817h4.79l-5.285 7.463 5.23 7.518h-4.762l-3.882-5.817h1.982l-3.882 5.817h-4.79zM39.1 21.155V6.175h3.854v3.648l-.413-.603c.22-1.153.753-2.003 1.597-2.552.844-.549 1.854-.823 3.028-.823 1.248 0 2.34.32 3.277.96.954.622 1.55 1.464 1.789 2.524l-1.184.11c.496-1.225 1.202-2.13 2.12-2.716.918-.585 1.992-.878 3.221-.878 1.083 0 2.037.238 2.863.713a5.083 5.083 0 011.983 2.003c.477.842.715 1.83.715 2.963v9.63h-4.13v-8.752c0-.585-.11-1.088-.33-1.509a2.305 2.305 0 00-.88-.987c-.386-.238-.854-.357-1.405-.357-.532 0-1 .119-1.404.357a2.492 2.492 0 00-.908.987c-.202.421-.303.924-.303 1.51v8.752h-4.13v-8.753c0-.585-.11-1.088-.33-1.509a2.305 2.305 0 00-.881-.987c-.386-.238-.854-.357-1.404-.357-.532 0-1 .119-1.404.357a2.492 2.492 0 00-.909.987c-.202.421-.303.924-.303 1.51v8.752H39.1zM68.77 21.484c-1.083 0-2.019-.174-2.808-.521-.79-.348-1.395-.842-1.817-1.482-.422-.659-.633-1.436-.633-2.332 0-.841.193-1.582.578-2.223.385-.658.973-1.207 1.762-1.646.807-.439 1.808-.75 3-.932l4.598-.741v3.018l-3.854.686c-.587.11-1.037.301-1.349.576-.312.256-.468.63-.468 1.125 0 .457.174.814.523 1.07.349.256.78.384 1.294.384.68 0 1.276-.146 1.79-.44a3.052 3.052 0 001.183-1.179c.294-.512.44-1.07.44-1.674v-3.896c0-.567-.228-1.042-.687-1.426-.44-.384-1.047-.576-1.817-.576-.734 0-1.386.2-1.955.603-.55.403-.954.933-1.211 1.591l-3.304-1.563a5.347 5.347 0 011.404-2.168 6.689 6.689 0 012.313-1.4c.899-.328 1.88-.493 2.945-.493 1.267 0 2.386.229 3.36.686.972.457 1.724 1.097 2.257 1.92.55.805.826 1.747.826 2.826v9.878h-3.855V18.74l.936-.164a7.56 7.56 0 01-1.459 1.646 5.392 5.392 0 01-1.79.933c-.66.22-1.394.329-2.202.329zM79.618 21.155V6.175h3.854v3.593l-.275-.52c.33-1.263.871-2.113 1.624-2.552.77-.458 1.68-.686 2.725-.686h.881v3.566h-1.294c-1.009 0-1.826.311-2.45.933-.624.604-.936 1.463-.936 2.58v8.066h-4.13zM97.465 21.32c-1.817 0-3.23-.486-4.24-1.455-.99-.988-1.486-2.36-1.486-4.115V9.74h-2.533V6.174h.138c.77 0 1.358-.192 1.762-.576.422-.384.633-.96.633-1.728V2.772h4.13v3.402h3.523v3.567h-3.524v5.734c0 .512.092.942.276 1.29.183.329.468.576.853.74.386.165.863.248 1.432.248.128 0 .275-.01.44-.028.165-.018.34-.037.523-.055v3.485c-.275.036-.587.073-.936.11-.348.036-.679.054-.99.054zM103.299 21.155v-4.116h4.13v4.116h-4.13z" fill="#0265DC"/></svg>