<svg width="48" height="48" fill="none" xmlns="http://www.w3.org/2000/svg"><path d="M2.906 25.544h3.057a3.048 3.048 0 003.048-3.048 3.048 3.048 0 013.049-3.048h4.145a4.755 4.755 0 000-9.51M33.762 36.656a7.214 7.214 0 002.576-13.953M30.21 22.229h-7.76a2.818 2.818 0 00-2.818 2.818 2.818 2.818 0 01-2.818 2.817h-.418a4.396 4.396 0 000 8.792M29.746 36.656v2.063c0 1.139-.923 2.062-2.062 2.062h-7.372a2.062 2.062 0 01-2.062-2.062v-2.063M37.797 20.895l-4.816-3.373" stroke="#0F73F6" stroke-miterlimit="10" stroke-linejoin="round"/><path d="M42.844 44.906H5.156a4.125 4.125 0 01-4.125-4.125v-4.125H46.97v4.125a4.125 4.125 0 01-4.125 4.125zM30.602 22.196c1.03-2.473 2.82-5.65 5.122-8.937 4.574-6.532 9.433-11.022 10.853-10.027 1.42.994-1.137 7.095-5.711 13.627-2.31 3.298-4.692 6.076-6.667 7.89" stroke="#0F73F6" stroke-miterlimit="10" stroke-linecap="round" stroke-linejoin="round"/><path d="M26.695 26.889a4.984 4.984 0 01-.816 3.83 6.593 6.593 0 007.698-2.113c1.366-1.79 1.044-4.382-.802-5.672a3.912 3.912 0 00-6.08 3.955z" stroke="#0F73F6" stroke-miterlimit="10" stroke-linecap="round" stroke-linejoin="round"/><path d="M45.092 36.656V13.688c0-.853-.285-1.64-.764-2.27M38.157 9.938h-31.5a3.75 3.75 0 00-3.75 3.75v22.968" stroke="#0F73F6" stroke-miterlimit="10" stroke-linejoin="round"/></svg>