<svg width="48" height="48" fill="none" xmlns="http://www.w3.org/2000/svg"><path d="M23.16 19.858h-7.086v-7.104M46.969 2.027H1.03v5.04H46.97v-5.04zM3.45 31.954V7.764M44.55 7.763v24.19M24 38.435v1.758M24 45.973a2.64 2.64 0 002.636-2.643 2.64 2.64 0 00-2.637-2.642 2.64 2.64 0 00-2.636 2.642A2.64 2.64 0 0024 45.973z" stroke="#0F73F6" stroke-miterlimit="10" stroke-linecap="round" stroke-linejoin="round"/><path d="M16.071 27.804c4.378 0 7.927-3.557 7.927-7.946 0-4.388-3.549-7.945-7.927-7.945s-7.926 3.557-7.926 7.945c0 4.389 3.549 7.946 7.926 7.946zM38.889 11.913H28.668v6.264h10.22v-6.264zM28.668 22.532h10.22M28.668 26.68h10.22M46.969 32.65H1.03v5.04H46.97v-5.04z" stroke="#0F73F6" stroke-miterlimit="10" stroke-linecap="round" stroke-linejoin="round"/></svg>