<svg width="151" height="150" fill="none" xmlns="http://www.w3.org/2000/svg"><path fill-rule="evenodd" clip-rule="evenodd" d="M100.571 98.7H74.246c-.975 0-1.725-.75-1.725-1.725 0-.9.75-1.725 1.725-1.725h26.325V82.5H96.146l-.15-.075h-.375l-.15-.075h-.15l-.15-.075H94.946l-.15-.075-.075-.075h-.15c-.075-.075-.15-.075-.225-.15-.15 0-.3-.075-.375-.15-1.725-.9-2.85-2.7-2.85-4.8V49.95c0-1.725.75-3.225 1.95-4.2l.15-.075.075-.075.075-.075h.075l.075-.075.075-.075h.075V45.3h.075l.075-.075h.075l.075-.075h.075l.075-.075c.75-.375 1.575-.6 2.4-.6h4.05v-2.55c0-2.025-1.575-3.6-3.6-3.6h-42.75c-2.025 0-3.6 1.575-3.6 3.6V51.3h26.325c.975 0 1.725.75 1.725 1.725 0 .9-.75 1.725-1.725 1.725H50.621V67.5H55.046l.15.075h.45l.075.075h.15l.15.075H56.246v.075h.15l.075.075h.15l.15.075.075.075h.15v.075h.15l.075.075.15.075.075.075.15.075h.075l.075.075.075.075.075.075.075.075.075.075.15.075h.075v.075h.075V69h.075v.075c.075.075.15.15.3.225v.075l.15.15.075.075.075.075v.075l.075.15.075.075.075.075c0 .075.075.15.075.225l.075.075.075.075v.075l.075.075v.075l.075.075v.15l.075.075c0 .075.075.15.075.15v.15h.075v.3c.075 0 .075.075.075.15l.075.15v.375l.075.15V100.05c0 .3 0 .6-.075.825 0 .15 0 .3-.075.375 0 .15-.075.3-.075.45l-.075.075v.15l-.075.15c0 .075-.075.15-.075.225l-.075.075v.075l-.075.075-.075.075v.075l-.075.075v.15h-.075v.075l-.075.075v.075h-.075v.075h-.075v.075c-.075.075-.075.075-.075.15l-.15.075-.075.075v.075c-.975 1.125-2.475 1.875-4.05 1.875h-4.05v2.55c0 2.025 1.575 3.6 3.6 3.6h42.75c2.025 0 3.6-1.575 3.6-3.6V98.7zM59.246 70.05c0 .075.075.15.075.225l-.075-.225zm44.85 68.925h-57c-4.425 0-8.025-3.6-8.025-7.95v-25.5H27.371l-.15-.075h-.525l-.15-.075H26.321l-.15-.075a5.401 5.401 0 01-4.05-5.25V72.975c0-3 2.4-5.475 5.4-5.475h11.55V18.975c0-4.35 3.6-7.95 8.025-7.95h57c4.425 0 8.025 3.6 8.025 7.95v25.5h11.55c3 0 5.4 2.475 5.4 5.475v27.075c0 3-2.4 5.475-5.4 5.475h-11.55v48.525c0 4.35-3.6 7.95-8.025 7.95zm-63.3-36.9h4.575l-2.925-2.925-.075-.075-9.525-9.525-7.35 7.425V100.35l.075.075V100.65l.075.075v.15h.075v.15l.075.075v.075h.075v.075l.075.075.075.075.075.075.075.075v.075h.075l.075.075.075.075h.075l.075.075h.075l.075.075h.15V102H27.071l.075.075h13.65zm53.775-24.75v.3c.075 0 .075.075.075.15v.075h.075V78h.075v.075l.075.075v.075h.075v.075l.075.075c.075.075.075.15.15.15v.075c.375.3.9.45 1.35.45h27.15c1.125 0 2.025-.9 2.025-2.025V49.95c0-1.125-.9-2.025-2.025-2.025h-27.15c-.9 0-1.725.675-1.95 1.5v.375h-.075V77.175h.075v.15zm-52.05 28.2v14.25h66.15V82.5h-4.65v25.575c0 3.9-3.15 7.05-7.05 7.05h-42.75c-3.9 0-7.05-3.15-7.05-7.05v-2.55h-4.65zm0 17.7v7.8c0 2.475 2.025 4.575 4.575 4.575h57c2.55 0 4.575-2.1 4.575-4.575v-7.8h-66.15zm61.5-78.75h4.65v-14.25h-66.15V67.5h4.65V41.925c0-3.9 3.15-7.05 7.05-7.05h42.75c3.9 0 7.05 3.15 7.05 7.05v2.55zm4.65-17.7v-7.8c0-2.475-2.025-4.575-4.575-4.575h-14.4v1.5c0 2.775-2.25 4.95-4.95 4.95h-18.3c-2.7 0-4.95-2.175-4.95-4.95v-1.5h-14.4c-2.55 0-4.575 2.1-4.575 4.575v7.8h66.15zM64.946 14.4v1.5c0 .9.675 1.575 1.5 1.575h18.3c.825 0 1.5-.675 1.5-1.575v-1.5h-21.3zm17.025 116.7h-13.35c-.9 0-1.65-.75-1.65-1.725 0-.9.75-1.65 1.65-1.65h13.35c.975 0 1.725.75 1.725 1.65 0 .975-.75 1.725-1.725 1.725zm-31.875-29.025h4.575c1.05 0 2.025-.9 2.025-2.025v-2.475L51.521 92.4l-5.475 5.55 3.15 3.15.6.6h.075v.075c.075.075.15.15.225.3zm6.6-9.375V72.975c0-.375-.075-.675-.225-.9-.075-.075-.075-.075-.075-.15l-.075-.075v-.075h-.075V71.7l-.075-.075v-.075h-.075l-.075-.075-.075-.075-.075-.075h-.075v-.075h-.075l-.075-.075h-.075V71.1h-.075a2.696 2.696 0 00-.825-.15h-27.15c-1.125 0-2.025.9-2.025 2.025V92.1l6.15-6.15c.675-.675 1.8-.675 2.4 0l9.6 9.525 6.675-6.675c.675-.675 1.8-.675 2.4 0l3.975 3.9zm37.875-10.575c-.075-.075-.15-.075-.225-.15l.225.15zM44.096 87.9c-3.675 0-6.675-3-6.675-6.675s3-6.675 6.675-6.675 6.675 3 6.675 6.675-3 6.675-6.675 6.675zm0-9.975c-1.8 0-3.3 1.5-3.3 3.3 0 1.8 1.5 3.3 3.3 3.3 1.8 0 3.3-1.5 3.3-3.3 0-1.8-1.5-3.3-3.3-3.3zm75.75-20.625h-10.875c-.9 0-1.725-.75-1.725-1.725 0-.9.825-1.725 1.725-1.725h10.875c.9 0 1.65.825 1.65 1.725 0 .975-.75 1.725-1.65 1.725zm-16.35 0h-3.075c-.975 0-1.725-.75-1.725-1.725 0-.9.75-1.725 1.725-1.725h3.075c.975 0 1.725.825 1.725 1.725 0 .975-.75 1.725-1.725 1.725zm16.35 7.875h-2.775c-.975 0-1.725-.75-1.725-1.65 0-.975.75-1.725 1.725-1.725h2.775c.9 0 1.65.75 1.65 1.725 0 .9-.75 1.65-1.65 1.65zm-9.75 0h-9.675c-.975 0-1.725-.75-1.725-1.65 0-.975.75-1.725 1.725-1.725h9.675c.9 0 1.725.75 1.725 1.725 0 .9-.825 1.65-1.725 1.65zm9.75 7.95h-8.4c-.9 0-1.725-.75-1.725-1.725 0-.9.825-1.725 1.725-1.725h8.4c.9 0 1.65.825 1.65 1.725 0 .975-.75 1.725-1.65 1.725zm-15.525 0h-3.9c-.975 0-1.725-.75-1.725-1.725 0-.9.75-1.725 1.725-1.725h3.9c.9 0 1.725.825 1.725 1.725 0 .975-.825 1.725-1.725 1.725z" fill="#0F73F6"/></svg>