<svg width="225" height="224" fill="none" xmlns="http://www.w3.org/2000/svg"><rect width="224" height="224" rx="20" fill="#F4F7FA"/><g clip-path="url(#clip0_8713_5135)"><mask id="a" style="mask-type:luminance" maskUnits="userSpaceOnUse" x="37" y="37" width="151" height="150"><path d="M37.2 37h149.999v150h-150V37z" fill="#fff"/></mask><g mask="url(#a)" stroke="#0265DC" stroke-width="4" stroke-miterlimit="10" stroke-linecap="round" stroke-linejoin="round"><path d="M79.473 180.038h57.842a1.47 1.47 0 001.462-1.462v-3.43c0-2.699-2.209-4.9-4.9-4.9H82.903c-2.69 0-4.891 2.201-4.891 4.9v3.43c0 .806.656 1.462 1.461 1.462zM88.934 170.246l3.911-13.08m31.101 0l3.903 13.08M55.355 146.054h94.665M39.395 118.64c0 2.126 1.735 3.87 3.861 3.87h87.108c2.126 0 3.861-1.744 3.861-3.87V47.824a3.87 3.87 0 00-3.861-3.862H43.256a3.87 3.87 0 00-3.861 3.862v70.816z"/><path d="M103.323 157.166H59.358a4.016 4.016 0 01-4.002-4.003V122.51m94.664 34.656h-36.59m20.795-73.573h23.203a4.016 4.016 0 014.003 4.003V127.6M91.888 64.459h42.338m-94.832 0H81.74M122.605 54.202v.017M111.746 54.202v.017M100.883 54.202v.017M51.012 54.202l22.489.017M121.427 75.778H88.889a1.49 1.49 0 00-1.487 1.487v9.808c0 .822.673 1.494 1.487 1.494h32.538c.813 0 1.486-.672 1.486-1.494v-9.808a1.49 1.49 0 00-1.486-1.487zM122.913 100.784h-35.51M104.734 111.19h18.179m-35.51 0h5.422M167.512 171.251h-.074M154.064 180.038h26.882a4.064 4.064 0 004.053-4.053v-44.34c0-2.226-1.827-4.044-4.053-4.044h-26.882a4.054 4.054 0 00-4.044 4.044v44.34a4.056 4.056 0 004.044 4.053zM52.202 75.778H74.6c.822 0 1.495.665 1.495 1.487v32.43c0 .823-.673 1.495-1.495 1.495H52.202a1.5 1.5 0 01-1.495-1.495v-32.43c0-.822.673-1.487 1.495-1.487z"/></g></g><defs><clipPath id="clip0_8713_5135"><path fill="#fff" transform="translate(37.2 37)" d="M0 0h150v150H0z"/></clipPath></defs></svg>