<svg width="225" height="224" viewBox="0 0 225 224" fill="none" xmlns="http://www.w3.org/2000/svg">
<rect x="0.800781" width="224" height="224" rx="20" fill="#F4F7FA"/>
<path d="M46.8828 116.825H56.4356C61.6965 116.825 65.9612 112.561 65.9612 107.3C65.9612 102.039 70.226 97.7741 75.4868 97.7741H88.4416C96.6485 97.7741 103.302 91.1211 103.302 82.9142C103.302 74.7072 96.6485 68.0542 88.4416 68.0542" stroke="#0F73F6" stroke-width="3.5" stroke-miterlimit="10" stroke-linejoin="round"/>
<path d="M143.309 151.551C155.759 151.551 165.852 141.458 165.852 129.007C165.852 119.394 159.834 111.186 151.361 107.945" stroke="#0F73F6" stroke-width="3.5" stroke-miterlimit="10" stroke-linejoin="round"/>
<path d="M132.209 106.465H107.956C103.092 106.465 99.1499 110.407 99.1499 115.271C99.1499 120.134 95.2074 124.076 90.3441 124.076H89.0378C81.4511 124.076 75.3008 130.227 75.3008 137.813C75.3005 145.4 81.4508 151.551 89.0375 151.551" stroke="#0F73F6" stroke-width="3.5" stroke-miterlimit="10" stroke-linejoin="round"/>
<path d="M130.762 151.551V157.996C130.762 161.555 127.876 164.441 124.316 164.441H101.281C97.7217 164.441 94.8359 161.555 94.8359 157.996V151.551" stroke="#0F73F6" stroke-width="3.5" stroke-miterlimit="10" stroke-linejoin="round"/>
<path d="M155.918 102.296L140.867 91.7573" stroke="#0F73F6" stroke-width="3.5" stroke-miterlimit="10" stroke-linejoin="round"/>
<path d="M171.688 177.332H53.9141C46.7946 177.332 41.0234 171.561 41.0234 164.441V151.551H184.578V164.441C184.578 171.561 178.807 177.332 171.688 177.332Z" stroke="#0F73F6" stroke-width="3.5" stroke-miterlimit="10" stroke-linecap="round" stroke-linejoin="round"/>
<path d="M133.43 106.362C136.65 98.6341 142.246 88.7045 149.437 78.4339C163.731 58.021 178.915 43.9919 183.352 47.0988C187.789 50.2058 179.799 69.2725 165.506 89.6854C158.289 99.9923 150.845 108.672 144.671 114.34" stroke="#0F73F6" stroke-width="3.5" stroke-miterlimit="10" stroke-linecap="round" stroke-linejoin="round"/>
<path d="M121.226 121.028C122.072 125.374 121.029 129.643 118.676 132.994C127.111 136.397 137.03 133.865 142.731 126.394C147.002 120.798 145.996 112.7 140.225 108.669C134.695 104.806 127.081 106.152 123.211 111.678C121.23 114.508 120.614 117.885 121.226 121.028Z" stroke="#0F73F6" stroke-width="3.5" stroke-miterlimit="10" stroke-linecap="round" stroke-linejoin="round"/>
<path d="M178.719 151.551V79.7734C178.719 77.1089 177.83 74.6521 176.332 72.6836" stroke="#0F73F6" stroke-width="3.5" stroke-miterlimit="10" stroke-linejoin="round"/>
<path d="M157.042 68.0547H58.6016C52.1296 68.0547 46.8828 73.3015 46.8828 79.7734V151.551" stroke="#0F73F6" stroke-width="3.5" stroke-miterlimit="10" stroke-linejoin="round"/>
</svg>
